<?xml version="1.0" encoding="UTF-8" standalone="no"?>
<!-- Created with Inkscape (http://www.inkscape.org/) -->

<svg
   xmlns:dc="http://purl.org/dc/elements/1.1/"
   xmlns:cc="http://creativecommons.org/ns#"
   xmlns:rdf="http://www.w3.org/1999/02/22-rdf-syntax-ns#"
   xmlns:svg="http://www.w3.org/2000/svg"
   xmlns="http://www.w3.org/2000/svg"
   xmlns:sodipodi="http://sodipodi.sourceforge.net/DTD/sodipodi-0.dtd"
   xmlns:inkscape="http://www.inkscape.org/namespaces/inkscape"
   id="svg3039"
   version="1.1"
   inkscape:version="0.48.4 r9939"
   width="420"
   height="305"
   sodipodi:docname="cc.svg">
  <metadata
     id="metadata3045">
    <rdf:RDF>
      <cc:Work
         rdf:about="">
        <dc:format>image/svg+xml</dc:format>
        <dc:type
           rdf:resource="http://purl.org/dc/dcmitype/StillImage" />
        <dc:title />
      </cc:Work>
    </rdf:RDF>
  </metadata>
  <defs
     id="defs3043" />
  <sodipodi:namedview
     pagecolor="#ffffff"
     bordercolor="#666666"
     borderopacity="1"
     objecttolerance="10"
     gridtolerance="10"
     guidetolerance="10"
     inkscape:pageopacity="0"
     inkscape:pageshadow="2"
     inkscape:window-width="1600"
     inkscape:window-height="851"
     id="namedview3041"
     showgrid="false"
     inkscape:zoom="1.5579533"
     inkscape:cx="127.11733"
     inkscape:cy="150.71015"
     inkscape:window-x="-4"
     inkscape:window-y="27"
     inkscape:window-maximized="1"
     inkscape:current-layer="svg3039" />
  <flowRoot
     xml:space="preserve"
     id="flowRoot3083"
     style="font-size:40px;font-style:normal;font-weight:normal;line-height:125%;letter-spacing:0px;word-spacing:0px;fill:#000000;fill-opacity:1;stroke:none;font-family:Sans"><flowRegion
       id="flowRegion3085"><rect
         id="rect3087"
         width="58.095238"
         height="42.663689"
         x="-39.940475"
         y="167.93155" /></flowRegion><flowPara
       id="flowPara3089">vc</flowPara></flowRoot>  <flowRoot
     xml:space="preserve"
     id="flowRoot3111"
     style="fill:black;stroke:none;stroke-opacity:1;stroke-width:1px;stroke-linejoin:miter;stroke-linecap:butt;fill-opacity:1;font-family:Sans;font-style:normal;font-weight:normal;font-size:40px;line-height:125%;letter-spacing:0px;word-spacing:0px"><flowRegion
       id="flowRegion3113"><rect
         id="rect3115"
         width="38.125"
         height="53.556549"
         x="-24.508928"
         y="33.586311" /></flowRegion><flowPara
       id="flowPara3117" /></flowRoot>  <g
     id="g3133">
    <path
       sodipodi:nodetypes="ccsssscsssssccssssccsssssccsssssssccssscssscsssscssssssssccssssssssssscsscssscssccssccsscsssscssccsssccscccssssccsscssssscssssssssssssss"
       style="fill:#000000"
       d="m 211.4561,280.54055 c -12.14033,-9.28163 -18.81675,-15.76839 -28.06423,-23.28991 -12.2375,-9.97241 -34.57895,-27.9017 -49.64766,-39.84289 -22.83309,-18.09404 -27.66462,-21.52084 -29,-20.56841 -0.88129,0.62855 -3.85234,2.3631 -6.602343,3.85456 -6.813069,3.69506 -18.372084,3.86279 -26.249066,0.38089 l -5.249067,-2.32027 -6.750933,7.35304 c -3.713014,4.04417 -12.825934,13.90752 -20.250934,21.91856 -7.425,8.01104 -16.043462,17.3574 -19.152138,20.7697 -3.108677,3.4123 -6.502202,6.66584 -7.25,6.20418 -3.3083094,-2.04241 -2.551337,-2.85849 2.868638,-8.49103 C 18.482766,244.04144 29.751364,230.925 41.660493,218 46.295247,213.61606 76.801893,179.04966 85.839355,168.45188 88.83192,165.6182 119.73732,133.38422 167.12352,80.5 c 9.8564,-11 22.37621,-24.833053 27.82179,-30.740117 13.38863,-14.523239 13.38933,-14.034966 -0.0413,-28.87929 -5.6442,-6.238227 -10.90707,-12.3827863 -10.26214,-13.1114122 3.40402,-3.8457972 2.68587,-1.7976084 10.24132,6.4578172 2.88446,3.085743 15.87237,16.341147 17.04366,17.23184 0.40078,0.389583 13.5259,-14.410689 15.2389,-16.319077 7.82974,-8.7228266 8.0721,-11.3507368 11.47612,-7.2152616 0.67268,0.8172303 -4.5,6.8765056 -10,12.9289576 -12.73373,14.012778 -12.81923,14.648639 -3.37926,25.129861 11.93098,13.247005 69.57847,77.932232 83.23342,93.394762 19.44405,22.01796 26.48576,27.83249 30.83886,32.34175 19.71299,22.87348 29.96023,35.99521 46.64718,54.28017 8.28801,9.075 17.00201,18.61822 19.36445,21.20716 2.36244,2.58894 5.67691,6.35221 4.97733,7.2314 -2.48723,3.12583 -4.11848,1.97223 -7.72754,-2.18856 C 392.06741,240.11151 355.24418,200 354.62968,200 c -0.40346,0 -2.70328,0.85524 -5.11069,1.90054 -9.68766,4.20638 -20.32119,3.45799 -27.79534,-1.95626 C 319.4882,198.32493 317.18774,197 316.61153,197 c -0.57622,0 -18.46761,14.04073 -39.75866,31.20163 -15.10238,11.93673 -47.75745,39.22907 -65.39677,52.33892 z m -1.84565,-54.29055 -0.0314,-44.75 -2.21991,-1.60912 c -1.95039,-1.41375 -9.07939,-1.69049 -58.71857,-2.27941 l -56.498703,-0.67029 2.647874,2.27941 c 3.358727,2.89134 33.518399,27.16046 68.352129,55.00211 14.85,11.8692 31.05,24.97452 36,29.12294 4.95,4.14842 9.3375,7.56773 9.75,7.59847 0.4125,0.0307 0.73586,-20.08161 0.71858,-44.69411 z m 16.87139,35.929 c 5.86302,-4.85156 25.82578,-21.02493 44.3617,-35.94084 18.53592,-14.91591 39.32289,-31.75896 46.19327,-37.429 L 329.52841,178.5 274.09353,178.24161 c -54.35568,-0.25336 -55.47397,-0.2193 -57.44327,1.75 -1.95101,1.95101 -2.00839,3.27974 -2.00839,46.50839 0,24.475 0.26549,44.5 0.58997,44.5 0.32449,0 5.38699,-3.96945 11.25,-8.821 z m 120.41003,-64.89781 c 2.0625,-0.87172 3.75,-1.80419 3.75,-2.07216 0,-0.26798 -2.74495,-3.15892 -5.58456,-6.84813 -9.4462,-11.37071 -6.77908,-11.6974 -15.66747,-3.93742 -0.74269,0.68652 -7.63579,7.30125 -8.10979,7.69119 -1.27051,1.04517 6.86993,6.10184 11.16096,6.93293 4.62033,0.89488 9.59209,0.28715 14.45086,-1.76641 z M 95.640826,196.41722 c 3.291249,-1.81162 6.464714,-4.32155 5.928044,-4.68858 -0.23485,-0.16061 -3.261952,-2.31963 -6.343337,-5.22976 -9.884676,-9.3353 -11.011834,-6.96396 -18.131827,0.72648 -2.998512,3.23875 -5.451839,6.29716 -5.451839,6.79646 0,1.13989 3.572783,3.08882 7.5,4.09119 3.945321,1.00699 13.343619,0.041 16.498959,-1.69579 z M 213.14187,175.16667 c 0,-1.80866 -1.9573,-1.47847 -2.3455,0.39568 -0.21599,1.04271 0.15888,1.49986 1,1.21948 0.74002,-0.24667 1.3455,-0.9735 1.3455,-1.61516 z m 125.5,0.33333 c 0,-0.825 -0.675,-1.5 -1.5,-1.5 -0.825,0 -1.5,0.675 -1.5,1.5 0,0.825 0.675,1.5 1.5,1.5 0.825,0 1.5,-0.675 1.5,-1.5 z M 86.641867,175.05902 c 0,-1.35037 -1.822937,-2.28649 -3.016312,-1.54894 -0.558971,0.34546 -0.757414,1.04702 -0.440983,1.55902 0.750674,1.21461 3.457295,1.20672 3.457295,-0.0101 z M 183.10949,170.75 c 2.07153,-7.73736 5.06868,-11.62824 8.49039,-15.51551 C 197.93506,149.79522 201.62595,147 209.64187,147 l 0,-12.27776 c 0,-17.41199 -1.87067,-16.92365 -8.4695,-16.73998 -35.57494,0.9902 -73.34247,18.66205 -101.398097,45.51026 l -8.367594,8.00748 40.867601,0.51687 c 22.47717,0.28428 42.97477,0.62178 45.5502,0.75 4.10843,0.20454 4.75648,-0.0428 5.28501,-2.01687 z m 26.53238,-5.33957 C 209.80234,150.84974 209.48419,152 207.60203,152 c -5.18402,0 -14.54516,5.89713 -17.90062,14.3151 -2.46279,6.17849 -2.3499,6.2035 10.10435,6.28373 11.24299,0.19924 8.55989,0.738 9.83611,-7.1884 z m 111.9803,-1.70662 c -22.17107,-21.48394 -45.13804,-34.51286 -71.66572,-40.65519 -18.21148,-4.21676 -26.08468,-4.89217 -30.83814,-5.12157 -4.46839,-0.21564 -4.47644,6.23182 -4.47644,22.92794 0,14.4239 0.3234,24.68924 0.349,28.57827 -0.0853,2.83229 -1.34136,3.69557 4.40259,3.74667 5.91448,0.0526 7.22297,-0.18064 58.96323,-0.21569 l 52.78518,-0.0358 -9.5197,-9.22467 z M 289.40554,125.759 c -4.68836,-5.1075 -17.87825,-19.85521 -29.31086,-32.772686 -22.76322,-25.719675 -45.05257,-51.206087 -45.52249,-51.206087 -0.1645,0 -0.12374,13.371033 0.0697,28.219773 l 0.5106,39.19773 c 0.70944,1.66265 -3.66167,2.82804 2.47337,3.18879 6.83009,0.40162 11.16663,1.25352 16.94163,2.02596 21.10355,2.82273 42.05901,9.32758 56.5744,17.87994 3.3,1.94434 6.17729,3.35916 6.39398,3.14406 0.21668,-0.2151 -3.44196,-4.56997 -8.13031,-9.67748 z m -156.59045,5.29417 C 151.85512,120.7966 180.67148,113 199.53992,113 c 4.73128,0 8.06761,-0.0928 9.0646,-0.40343 0.88789,-1.66972 1.06276,-4.50335 0.80104,-37.477381 l -0.26369,-33.222757 -25.5,28.28167 C 169.61687,85.733021 150.5888,106.68132 141.35728,116.72989 132.12575,126.77845 124.7787,135 125.03049,135 c 0.2518,0 3.75486,-1.77607 7.7846,-3.94683 z M 213.4127,115.8125 c -0.61807,-1.85422 -2.77083,-2.16176 -2.77083,-0.39583 0,0.87083 0.7125,1.58333 1.58333,1.58333 0.87084,0 1.40521,-0.53437 1.1875,-1.1875 z m 0,-80.625 C 213.63041,34.534375 213.09604,34 212.2252,34 c -0.87083,0 -1.58333,0.7125 -1.58333,1.583333 0,1.765927 2.15276,1.45839 2.77083,-0.395833 z"
       id="path3063"
       inkscape:connector-curvature="0" />
    <flowRoot
       transform="translate(106.65923,46.294643)"
       style="font-size:40px;font-style:normal;font-weight:normal;line-height:125%;letter-spacing:0px;word-spacing:0px;fill:#000000;fill-opacity:1;stroke:none;font-family:Sans"
       id="flowRoot3075"
       xml:space="preserve"><flowRegion
         id="flowRegion3077"><rect
           y="100.30506"
           x="-45.840775"
           height="47.202381"
           width="84.41964"
           id="rect3079" /></flowRegion><flowPara
         style="font-size:24px"
         id="flowPara3081">O</flowPara></flowRoot>    <text
       sodipodi:linespacing="125%"
       id="text3091"
       y="305.45386"
       x="202.4256"
       style="font-size:40px;font-style:normal;font-weight:normal;line-height:125%;letter-spacing:0px;word-spacing:0px;fill:#000000;fill-opacity:1;stroke:none;font-family:Sans"
       xml:space="preserve"><tspan
         style="font-size:24px"
         y="305.45386"
         x="202.4256"
         id="tspan3093"
         sodipodi:role="line">C</tspan></text>
    <text
       sodipodi:linespacing="125%"
       id="text3095"
       y="168.83928"
       x="344.4866"
       style="font-size:40px;font-style:normal;font-weight:normal;line-height:125%;letter-spacing:0px;word-spacing:0px;fill:#000000;fill-opacity:1;stroke:none;font-family:Sans"
       xml:space="preserve"><tspan
         style="font-size:24px"
         y="168.83928"
         x="344.4866"
         id="tspan3097"
         sodipodi:role="line">F</tspan></text>
    <text
       sodipodi:linespacing="125%"
       id="text3099"
       y="108.02084"
       x="218.76488"
       style="font-size:40px;font-style:normal;font-weight:normal;line-height:125%;letter-spacing:0px;word-spacing:0px;fill:#000000;fill-opacity:1;stroke:none;font-family:Sans"
       xml:space="preserve"><tspan
         style="font-size:24px"
         y="108.02084"
         x="218.76488"
         id="tspan3101"
         sodipodi:role="line">M</tspan></text>
    <text
       sodipodi:linespacing="125%"
       id="text3103"
       y="22.239582"
       x="204.24107"
       style="font-size:40px;font-style:normal;font-weight:normal;line-height:125%;letter-spacing:0px;word-spacing:0px;fill:#000000;fill-opacity:1;stroke:none;font-family:Sans"
       xml:space="preserve"><tspan
         style="font-size:24px"
         y="22.239582"
         x="204.24107"
         id="tspan3105"
         sodipodi:role="line">S</tspan></text>
    <text
       sodipodi:linespacing="125%"
       id="text3107"
       y="167.02382"
       x="218.76489"
       style="font-size:40px;font-style:normal;font-weight:normal;line-height:125%;letter-spacing:0px;word-spacing:0px;fill:#000000;fill-opacity:1;stroke:none;font-family:Sans"
       xml:space="preserve"><tspan
         style="font-size:24px"
         y="167.02382"
         x="218.76489"
         id="tspan3109"
         sodipodi:role="line">B</tspan></text>
    <path
       transform="translate(1.0406733,0.03726572)"
       d="m 91.227675,173.83185 a 6.8080359,6.8080359 0 1 1 -13.616071,0 6.8080359,6.8080359 0 1 1 13.616071,0 z"
       sodipodi:ry="6.8080359"
       sodipodi:rx="6.8080359"
       sodipodi:cy="173.83185"
       sodipodi:cx="84.41964"
       id="path3119"
       style="fill:#ff0000;fill-opacity:1"
       sodipodi:type="arc" />
    <path
       d="m 91.227675,173.83185 a 6.8080359,6.8080359 0 1 1 -13.616071,0 6.8080359,6.8080359 0 1 1 13.616071,0 z"
       sodipodi:ry="6.8080359"
       sodipodi:rx="6.8080359"
       sodipodi:cy="173.83185"
       sodipodi:cx="84.41964"
       id="path3119-0"
       style="fill:#ff0000;fill-opacity:1"
       sodipodi:type="arc"
       transform="translate(127.3492,-137.76066)" />
    <path
       d="m 91.227675,173.83185 a 6.8080359,6.8080359 0 1 1 -13.616071,0 6.8080359,6.8080359 0 1 1 13.616071,0 z"
       sodipodi:ry="6.8080359"
       sodipodi:rx="6.8080359"
       sodipodi:cy="173.83185"
       sodipodi:cx="84.41964"
       id="path3119-6"
       style="fill:#ff0000;fill-opacity:1"
       sodipodi:type="arc"
       transform="translate(253.25893,-2.9064386e-6)" />
    <path
       d="m 91.227675,173.83185 a 6.8080359,6.8080359 0 1 1 -13.616071,0 6.8080359,6.8080359 0 1 1 13.616071,0 z"
       sodipodi:ry="6.8080359"
       sodipodi:rx="6.8080359"
       sodipodi:cy="173.83185"
       sodipodi:cx="84.41964"
       id="path3119-8"
       style="fill:#ff0000;fill-opacity:1"
       sodipodi:type="arc"
       transform="translate(127.56474,1.5771347)" />
    <path
       d="m 91.227675,173.83185 a 6.8080359,6.8080359 0 1 1 -13.616071,0 6.8080359,6.8080359 0 1 1 13.616071,0 z"
       sodipodi:ry="6.8080359"
       sodipodi:rx="6.8080359"
       sodipodi:cy="173.83185"
       sodipodi:cx="84.41964"
       id="path3119-7"
       style="fill:#ff0000;fill-opacity:1"
       sodipodi:type="arc"
       transform="translate(127.37674,-58.228176)" />
    <path
       d="m 91.227675,173.83185 a 6.8080359,6.8080359 0 1 1 -13.616071,0 6.8080359,6.8080359 0 1 1 13.616071,0 z"
       sodipodi:ry="6.8080359"
       sodipodi:rx="6.8080359"
       sodipodi:cy="173.83185"
       sodipodi:cx="84.41964"
       id="path3119-65"
       style="fill:#ff0000;fill-opacity:1"
       sodipodi:type="arc"
       transform="translate(127.40428,102.70733)" />
    <path
       transform="translate(0.16046694,-1.6046694)"
       d="m 339.54805,192.67314 a 3.2093389,3.2093389 0 1 1 -6.41867,0 3.2093389,3.2093389 0 1 1 6.41867,0 z"
       sodipodi:ry="3.2093389"
       sodipodi:rx="3.2093389"
       sodipodi:cy="192.67314"
       sodipodi:cx="336.33871"
       id="path3167"
       style="fill:#000000;fill-opacity:1"
       sodipodi:type="arc" />
    <path
       d="m 339.54805,192.67314 a 3.2093389,3.2093389 0 1 1 -6.41867,0 3.2093389,3.2093389 0 1 1 6.41867,0 z"
       sodipodi:ry="3.2093389"
       sodipodi:rx="3.2093389"
       sodipodi:cy="192.67314"
       sodipodi:cx="336.33871"
       id="path3167-8"
       style="fill:#000000;fill-opacity:1"
       sodipodi:type="arc"
       transform="translate(-250.16797,-2.727938)" />
    <path
       d="m 339.54805,192.67314 a 3.2093389,3.2093389 0 1 1 -6.41867,0 3.2093389,3.2093389 0 1 1 6.41867,0 z"
       sodipodi:ry="3.2093389"
       sodipodi:rx="3.2093389"
       sodipodi:cy="192.67314"
       sodipodi:cx="336.33871"
       id="path3167-2"
       style="fill:#000000;fill-opacity:1"
       sodipodi:type="arc"
       transform="translate(-135.59457,-28.081715)" />
    <path
       sodipodi:nodetypes="ccccccc"
       inkscape:connector-curvature="0"
       id="path3204"
       d="m 187.22102,256.05929 c 2.47754,-8.32914 10.05729,-15.46659 24.40438,-16.10995 14.25998,0.49108 21.86245,9.35258 23.55114,17.61054 -2.02011,2.2608 -3.40247,3.28508 -4.64213,3.16869 -2.683,-11.08013 -10.26301,-14.73297 -18.41187,-14.52102 -7.59796,-0.3238 -17.59262,3.31019 -19.89288,13.3653 -3.61136,2.95981 -7.46487,-0.14966 -5.00864,-3.51356 z"
       style="fill:#000000;fill-opacity:1" />
    <path
       sodipodi:nodetypes="ccccccc"
       inkscape:connector-curvature="0"
       id="path3204-6"
       d="m 191.8053,56.570423 c 2.07635,6.306003 8.42869,11.709776 20.45252,12.196865 11.95083,-0.371797 18.32221,-7.080851 19.73745,-13.332964 -1.69299,-1.711655 -2.8515,-2.487139 -3.89042,-2.39902 -2.24854,8.388782 -8.6011,11.154352 -15.43039,10.993885 -6.36761,0.245149 -14.74381,-2.50615 -16.67158,-10.118888 -3.02656,-2.240875 -6.25606,0.113309 -4.19758,2.660122 z"
       style="fill:#000000;fill-opacity:1" />
    <flowRoot
       transform="matrix(0.91839124,0,0,0.65340731,534.57517,169.08817)"
       style="font-size:40px;font-style:normal;font-weight:normal;line-height:125%;letter-spacing:0px;word-spacing:0px;fill:#000000;fill-opacity:1;stroke:none;font-family:Sans"
       id="flowRoot3224"
       xml:space="preserve"><flowRegion
         id="flowRegion3226"><rect
           y="75.211342"
           x="-389.61374"
           height="68.037979"
           width="220.80251"
           id="rect3228" /></flowRegion><flowPara
         style="font-size:25.81809235px"
         id="flowPara3230">2α</flowPara></flowRoot>    <flowRoot
       transform="matrix(0.6604997,0,0,0.6604997,441.8066,-50.562715)"
       style="font-size:40px;font-style:normal;font-weight:normal;line-height:125%;letter-spacing:0px;word-spacing:0px;fill:#000000;fill-opacity:1;stroke:none;font-family:Sans"
       id="flowRoot3232"
       xml:space="preserve"><flowRegion
         id="flowRegion3234"><rect
           y="172.13338"
           x="-381.26944"
           height="116.81993"
           width="161.75067"
           id="rect3236" /></flowRegion><flowPara
         style="font-size:30.28010459px"
         id="flowPara3238">β</flowPara></flowRoot>  </g>
  <flowRoot
     xml:space="preserve"
     id="flowRoot3117"
     style="fill:black;stroke:none;stroke-opacity:1;stroke-width:1px;stroke-linejoin:miter;stroke-linecap:butt;fill-opacity:1;font-family:Sans;font-style:normal;font-weight:normal;font-size:40px;line-height:125%;letter-spacing:0px;word-spacing:0px"><flowRegion
       id="flowRegion3119"><rect
         id="rect3121"
         width="514.77795"
         height="351.74353"
         x="-48.140083"
         y="-20.426954" /></flowRegion><flowPara
       id="flowPara3123"></flowPara></flowRoot>  <flowRoot
     xml:space="preserve"
     id="flowRoot3125"
     style="fill:black;stroke:none;stroke-opacity:1;stroke-width:1px;stroke-linejoin:miter;stroke-linecap:butt;fill-opacity:1;font-family:Sans;font-style:normal;font-weight:normal;font-size:40px;line-height:125%;letter-spacing:0px;word-spacing:0px"><flowRegion
       id="flowRegion3127"><rect
         id="rect3129"
         width="571.26233"
         height="346.60858"
         x="-112.32686"
         y="-21.068821" /></flowRegion><flowPara
       id="flowPara3131"></flowPara></flowRoot></svg>
