<?xml version="1.0" encoding="UTF-8" standalone="no"?>
<!-- Created with Inkscape (http://www.inkscape.org/) -->

<svg
   xmlns:dc="http://purl.org/dc/elements/1.1/"
   xmlns:cc="http://creativecommons.org/ns#"
   xmlns:rdf="http://www.w3.org/1999/02/22-rdf-syntax-ns#"
   xmlns:svg="http://www.w3.org/2000/svg"
   xmlns="http://www.w3.org/2000/svg"
   xmlns:sodipodi="http://sodipodi.sourceforge.net/DTD/sodipodi-0.dtd"
   xmlns:inkscape="http://www.inkscape.org/namespaces/inkscape"
   id="svg2"
   version="1.1"
   inkscape:version="0.48.4 r9939"
   width="658"
   height="662"
   sodipodi:docname="intersection_cc.svg">
  <metadata
     id="metadata8">
    <rdf:RDF>
      <cc:Work
         rdf:about="">
        <dc:format>image/svg+xml</dc:format>
        <dc:type
           rdf:resource="http://purl.org/dc/dcmitype/StillImage" />
        <dc:title></dc:title>
      </cc:Work>
    </rdf:RDF>
  </metadata>
  <defs
     id="defs6" />
  <sodipodi:namedview
     pagecolor="#ffffff"
     bordercolor="#666666"
     borderopacity="1"
     objecttolerance="10"
     gridtolerance="10"
     guidetolerance="10"
     inkscape:pageopacity="0"
     inkscape:pageshadow="2"
     inkscape:window-width="1157"
     inkscape:window-height="847"
     id="namedview4"
     showgrid="false"
     inkscape:zoom="0.35355339"
     inkscape:cx="-110.78363"
     inkscape:cy="353.91329"
     inkscape:window-x="0"
     inkscape:window-y="27"
     inkscape:window-maximized="0"
     inkscape:current-layer="g3589"
     showguides="true"
     inkscape:guide-bbox="true" />
  <path
     style="fill:#000000;fill-opacity:1"
     d=""
     id="path3004"
     inkscape:connector-curvature="0" />
  <g
     id="g3110">
    <flowRoot
       xml:space="preserve"
       id="flowRoot3026"
       style="font-size:8px;font-style:normal;font-weight:normal;line-height:125%;letter-spacing:0px;word-spacing:0px;fill:#000000;fill-opacity:1;stroke:none;font-family:Sans"
       transform="translate(11.220337,-5.6101699)"><flowRegion
         id="flowRegion3028"><rect
           id="rect3030"
           width="219.20309"
           height="57.982758"
           x="182.43355"
           y="-90.36161"
           style="font-size:8px" /></flowRegion><flowPara
         id="flowPara3032" /></flowRoot>    <flowRoot
       xml:space="preserve"
       id="flowRoot3480"
       style="fill:black;stroke:none;stroke-opacity:1;stroke-width:1px;stroke-linejoin:miter;stroke-linecap:butt;fill-opacity:1;font-family:Sans;font-style:normal;font-weight:normal;font-size:40px;line-height:125%;letter-spacing:0px;word-spacing:0px"><flowRegion
         id="flowRegion3482"><rect
           id="rect3484"
           width="91.216774"
           height="72.832001"
           x="-725.49158"
           y="221.47247" /></flowRegion><flowPara
         id="flowPara3486" /></flowRoot>    <g
       id="g3589"
       transform="matrix(0.72292575,0,0,0.72292575,-81.381953,113.97486)">
      <g
         id="g3168"
         transform="translate(500.79648,7.824945)">
        <path
           style="fill:#000000"
           d="M 239.5144,402.36007 C 130.76904,400.07436 104.39846,327.88736 94.71153,276.55527 c -3.03887,-64.97225 0.17317,-80.57395 26.47203,-112.99375 60.68882,-74.464277 141.16229,-66.752828 186.32021,-36.3474 76.50932,51.51476 81.93009,120.78 68.67767,176.94932 -2.25824,24.03116 -46.66782,92.84363 -136.66704,98.19663 z M 366.71479,300.53996 c 17.70082,-54.99418 -7.30675,-132.98804 -65.06507,-165.19409 -41.8883,-19.64206 -66.6099,-27.68475 -118.45836,-6.96009 -47.80457,25.8413 -60.24282,45.38265 -72.83535,72.17931 -8.12198,17.71233 -9.08156,48.52344 -6.38492,71.92666 11.64086,77.08353 64.84688,114.2541 132.20554,120.14551 58.07686,-0.57703 117.63773,-42.93276 130.53816,-92.0973 z"
           id="path2997"
           inkscape:connector-curvature="0"
           sodipodi:nodetypes="cccsccccccccc" />
        <flowRoot
           xml:space="preserve"
           id="flowRoot3472"
           style="font-size:40px;font-style:normal;font-weight:normal;line-height:125%;letter-spacing:0px;word-spacing:0px;fill:#000000;fill-opacity:1;stroke:none;font-family:Sans"
           transform="translate(787.10083,-189.83735)"><flowRegion
             id="flowRegion3474"><rect
               id="rect3476"
               width="234.75945"
               height="192.33304"
               x="-690.13623"
               y="246.22121" /></flowRegion><flowPara
             id="flowPara3478"
             style="font-size:56px">I<flowSpan
   id="flowSpan3164"
   style="font-size:44.26457214px">1</flowSpan></flowPara></flowRoot>        <text
           xml:space="preserve"
           style="font-size:56px;font-style:normal;font-weight:normal;line-height:125%;letter-spacing:0px;word-spacing:0px;fill:#000000;fill-opacity:1;stroke:none;font-family:Sans"
           x="274.87384"
           y="314.45065"
           id="text3511"
           sodipodi:linespacing="125%"><tspan
             sodipodi:role="line"
             id="tspan3513"
             x="274.87384"
             y="314.45065"><tspan
               id="tspan3166"
               style="font-size:55.33071518px">r</tspan><tspan
               id="tspan3160"
               style="font-size:38.73150253px">2</tspan></tspan></text>
        <text
           xml:space="preserve"
           style="font-size:56px;font-style:normal;font-weight:normal;line-height:125%;letter-spacing:0px;word-spacing:0px;fill:#000000;fill-opacity:1;stroke:none;font-family:Sans"
           x="217.67091"
           y="238.27681"
           id="text3515"
           sodipodi:linespacing="125%"><tspan
             sodipodi:role="line"
             id="tspan3517"
             x="217.67091"
             y="238.27681">B</tspan></text>
        <text
           xml:space="preserve"
           style="font-size:56px;font-style:normal;font-weight:normal;line-height:125%;letter-spacing:0px;word-spacing:0px;fill:#000080;fill-opacity:1;stroke:none;font-family:Sans"
           x="-47.311169"
           y="299.7305"
           id="text3519"
           sodipodi:linespacing="125%"><tspan
             style="fill:#000000"
             sodipodi:role="line"
             id="tspan3521"
             x="-47.311169"
             y="299.7305">A</tspan></text>
        <text
           xml:space="preserve"
           style="font-size:56px;font-style:normal;font-weight:normal;line-height:125%;letter-spacing:0px;word-spacing:0px;fill:#000000;fill-opacity:1;stroke:none;font-family:Sans"
           x="178.68176"
           y="464.76855"
           id="text3499"
           sodipodi:linespacing="125%"><tspan
             sodipodi:role="line"
             id="tspan3501"
             x="178.68176"
             y="464.76855">I<tspan
   id="tspan3162"
   style="font-size:44.26457214px">2</tspan></tspan></text>
        <path
           sodipodi:type="arc"
           style="fill:#000000;fill-opacity:1"
           id="path3109-08-3-0-7"
           sodipodi:cx="131.25"
           sodipodi:cy="214.75"
           sodipodi:rx="6.875"
           sodipodi:ry="6.875"
           d="m 138.125,214.75 c 0,3.79696 -3.07804,6.875 -6.875,6.875 -3.79696,0 -6.875,-3.07804 -6.875,-6.875 0,-3.79696 3.07804,-6.875 6.875,-6.875 3.79696,0 6.875,3.07804 6.875,6.875 z"
           transform="matrix(-1.5142594,0,0,1.5142594,435.02413,-65.3453)" />
        <path
           style="fill:#000000;stroke:#000000;stroke-width:1px;stroke-linecap:butt;stroke-linejoin:miter;stroke-opacity:1"
           d="m 234.86338,268.3272 38.89086,98.99495 7.07108,-2.82842 -40.30509,-100.40917 z"
           id="path3566"
           inkscape:connector-curvature="0" />
        <path
           style="fill:#000000;stroke:#000000;stroke-width:1.02043176px;stroke-linecap:butt;stroke-linejoin:miter;stroke-opacity:1"
           d="m 285.76485,360.9684 -16.95014,7.77114 16.21318,14.83584 z"
           id="path3568"
           inkscape:connector-curvature="0" />
        <path
           style="fill:#000000"
           d="M -30.873429,541.32053 C -195.19229,537.86672 -261.67374,397.1701 -256.45441,297.65828 c 0.63356,-10.38842 8.08444,-69.22993 47.82314,-118.21763 C -116.92788,66.921952 -0.6704208,87.73002 72.906505,124.51818 180.21572,178.17235 200.61883,283.54706 176.68138,391.89615 170.50254,429.59151 105.11924,533.23191 -30.873429,541.32053 z M 167.90995,385.03763 C 190.50684,293.63947 168.60656,179.69991 61.294235,132.6558 29.299008,114.71323 -37.9729,90.82297 -116.31811,122.13881 c -93.53058,48.04192 -163.77424,151.4389 -110.40117,276.11296 35.4213,80.51153 108.7345,135.02914 195.997225,131.48188 87.756626,-0.87192 179.138905,-70.40629 198.632005,-144.69602 z"
           id="path2997-3"
           inkscape:connector-curvature="0"
           sodipodi:nodetypes="cccscccccccc" />
        <path
           sodipodi:type="arc"
           style="fill:#000000;fill-opacity:1"
           id="path3109-08-3-0-7-5"
           sodipodi:cx="131.25"
           sodipodi:cy="214.75"
           sodipodi:rx="6.875"
           sodipodi:ry="6.875"
           d="m 138.125,214.75 c 0,3.79696 -3.07804,6.875 -6.875,6.875 -3.79696,0 -6.875,-3.07804 -6.875,-6.875 0,-3.79696 3.07804,-6.875 6.875,-6.875 3.79696,0 6.875,3.07804 6.875,6.875 z"
           transform="matrix(2.2881105,0,0,2.2881105,-329.56092,-166.44731)" />
        <path
           sodipodi:nodetypes="ccccc"
           style="fill:#000000;stroke:#000000;stroke-width:1.51104259px;stroke-linecap:butt;stroke-linejoin:miter;stroke-opacity:1"
           d="m -29.065718,333.34453 -64.634462,164.74642 -5.30505,-3.29574 63.83705,-162.9709 z"
           id="path3566-8"
           inkscape:connector-curvature="0" />
        <path
           style="fill:#000000;stroke:#000000;stroke-width:1.54191589px;stroke-linecap:butt;stroke-linejoin:miter;stroke-opacity:1"
           d="m -107.68451,486.51954 25.61238,11.74252 -24.4988,22.41759 z"
           id="path3568-3"
           inkscape:connector-curvature="0" />
        <path
           sodipodi:type="arc"
           style="fill:#ff0000;fill-opacity:1"
           id="path3109-08-3-0-4"
           sodipodi:cx="131.25"
           sodipodi:cy="214.75"
           sodipodi:rx="6.875"
           sodipodi:ry="6.875"
           d="m 138.125,214.75 c 0,3.79696 -3.07804,6.875 -6.875,6.875 -3.79696,0 -6.875,-3.07804 -6.875,-6.875 0,-3.79696 3.07804,-6.875 6.875,-6.875 3.79696,0 6.875,3.07804 6.875,6.875 z"
           transform="matrix(2.2342227,0,0,2.2342227,-170.98581,-311.00586)" />
        <path
           sodipodi:type="arc"
           style="fill:#ff0000;fill-opacity:1"
           id="path3109-08-3-0-6"
           sodipodi:cx="131.25"
           sodipodi:cy="214.75"
           sodipodi:rx="6.875"
           sodipodi:ry="6.875"
           d="m 138.125,214.75 c 0,3.79696 -3.07804,6.875 -6.875,6.875 -3.79696,0 -6.875,-3.07804 -6.875,-6.875 0,-3.79696 3.07804,-6.875 6.875,-6.875 3.79696,0 6.875,3.07804 6.875,6.875 z"
           transform="matrix(2.2342227,0,0,2.2342227,-121.27207,-100.17617)" />
        <text
           xml:space="preserve"
           style="font-size:56px;font-style:normal;font-weight:normal;line-height:125%;letter-spacing:0px;word-spacing:0px;fill:#000000;fill-opacity:1;stroke:none;font-family:Sans"
           x="-56.40765"
           y="440.37967"
           id="text3511-3"
           sodipodi:linespacing="125%"><tspan
             style="font-size:55.33071518px"
             sodipodi:role="line"
             id="tspan3513-4"
             x="-56.40765"
             y="440.37967">r<tspan
   id="tspan3158"
   style="font-size:38.73150253px">1</tspan></tspan></text>
      </g>
      <flowRoot
         xml:space="preserve"
         id="flowRoot3148"
         style="fill:black;stroke:none;stroke-opacity:1;stroke-width:1px;stroke-linejoin:miter;stroke-linecap:butt;fill-opacity:1;font-family:Sans;font-style:normal;font-weight:normal;font-size:56px;line-height:125%;letter-spacing:0px;word-spacing:0px"><flowRegion
           id="flowRegion3150"><rect
             id="rect3152"
             width="60"
             height="56"
             x="97"
             y="-3.4929656e-07" /></flowRegion><flowPara
           id="flowPara3154"></flowPara></flowRoot>    </g>
  </g>
</svg>
