<?xml version="1.0" encoding="UTF-8" standalone="no"?>
<!-- Created with Inkscape (http://www.inkscape.org/) -->

<svg
   xmlns:dc="http://purl.org/dc/elements/1.1/"
   xmlns:cc="http://creativecommons.org/ns#"
   xmlns:rdf="http://www.w3.org/1999/02/22-rdf-syntax-ns#"
   xmlns:svg="http://www.w3.org/2000/svg"
   xmlns="http://www.w3.org/2000/svg"
   xmlns:sodipodi="http://sodipodi.sourceforge.net/DTD/sodipodi-0.dtd"
   xmlns:inkscape="http://www.inkscape.org/namespaces/inkscape"
   id="svg2"
   version="1.1"
   inkscape:version="0.48.4 r9939"
   width="800"
   height="566"
   sodipodi:docname="rccirc1.jpg">
  <metadata
     id="metadata8">
    <rdf:RDF>
      <cc:Work
         rdf:about="">
        <dc:format>image/svg+xml</dc:format>
        <dc:type
           rdf:resource="http://purl.org/dc/dcmitype/StillImage" />
        <dc:title></dc:title>
      </cc:Work>
    </rdf:RDF>
  </metadata>
  <defs
     id="defs6" />
  <sodipodi:namedview
     pagecolor="#ffffff"
     bordercolor="#666666"
     borderopacity="1"
     objecttolerance="10"
     gridtolerance="10"
     guidetolerance="10"
     inkscape:pageopacity="0"
     inkscape:pageshadow="2"
     inkscape:window-width="1600"
     inkscape:window-height="851"
     id="namedview4"
     showgrid="false"
     inkscape:zoom="1.1313708"
     inkscape:cx="275.63456"
     inkscape:cy="161.09441"
     inkscape:window-x="-4"
     inkscape:window-y="27"
     inkscape:window-maximized="1"
     inkscape:current-layer="svg2" />
  <g
     id="g3013">
    <path
       sodipodi:nodetypes="sssssssscccsssccccssssccssscsssss"
       style="fill:#000000"
       d="m 98.1875,529.85417 c -1.836788,-1.83679 0.224086,-19.06534 3.51134,-29.35417 5.11677,-16.01507 14.51654,-29.09294 28.4456,-39.57625 25.67251,-19.32169 59.10197,-21.87892 87.85556,-6.72063 12.83044,6.76394 27.28896,21.31146 33.90729,34.11601 4.92964,9.53743 8.90848,26.37768 8.41163,35.60187 -0.51915,9.63837 -2.16013,8.4109 -1.63507,-3.49608 0.0693,-1.5724 -2.47161,-21.95617 -6.53043,-19.92492 -0.078,0.039 -4.88241,1.8121 -10.65599,4.0269 -34.81001,13.32277 -59.34862,22.49079 -62.34217,23.5981 -19.33716,-7.88329 -41.6033,-15.50798 -60.54703,-22.65606 -10.00554,-3.77947 -12.22748,-3.90102 -13.28599,-3.69744 -2.17814,0.41891 -4.77042,11.02169 -5.51022,19.85967 -0.62897,7.51397 0.17742,10.02494 -1.62452,8.223 z m 151.59017,-30.30566 c 1.53306,0.49456 -124.92831,0.71671 -139.87797,0.6664 22.11154,8.3774 59.25332,21.82516 69.20452,26.01205 5.44173,-1.92767 47.18297,-17.91773 70.67345,-26.67845 z M 97.863953,381.85358 c 1.783853,-23.28933 9.545397,-39.60352 26.298837,-55.27817 24.82905,-23.23026 60.89293,-28.26565 91.83721,-12.82269 21.38171,10.67069 37.35753,31.14083 42.51795,54.47913 2.42341,10.95998 2.88917,22.71009 0.70302,22.71009 -1.3784,-0.45297 -0.54249,-6.00582 -0.70493,-8.15165 -0.88729,-10.82585 -2.50481,-13.00341 -3.58581,-17.87704 -1.23225,-5.55557 -2.87738,-3.41325 -3.15848,-3.41325 -0.2811,0 -10.69474,3.87041 -23.14142,8.60091 -28.01527,10.64751 -46.12163,17.42973 -48.25526,18.0753 -0.89372,0.2704 -10.79372,-2.98629 -22,-7.23708 -43.35673,-16.4462 -49.74517,-17.78365 -51.24422,-18.80576 -3.49046,-2.37993 -5.81996,6.64937 -6.77999,18.69231 -0.578585,7.258 0.37267,9.20441 -1.257955,9.51649 -1.800185,0.34452 -1.869079,-0.13134 -1.228952,-8.48859 z"
       id="path3001"
       inkscape:connector-curvature="0" />
    <path
       sodipodi:nodetypes="sssssssssssscscscscc"
       style="fill:#ff0000"
       d="m 105.86875,497.28749 c -1.26897,-2.05283 8.63886,-17.90935 16.02055,-25.63932 37.31561,-39.0762 100.87616,-30.57744 127.01914,16.98388 1.97536,3.59372 3.59159,7.17167 3.59162,7.951 5e-5,1.20968 -10.69232,1.41695 -73.09541,1.41695 -40.2025,0 -73.29366,-0.32063 -73.5359,-0.71251 z M 142.5,372.43086 c -18.425,-7.06112 -34.2875,-12.8592 -35.25,-12.88463 -2.46716,-0.0652 -2.18613,-2.23929 1.14155,-8.83139 8.32067,-16.48316 24.74957,-31.37261 42.21021,-38.25495 16.88291,-6.65462 40.83371,-6.44342 58.17703,0.513 17.89553,7.17792 35.07503,23.65528 42.55588,40.8166 l 2.0878,4.78949 -2.52633,0.96051 c -1.38949,0.52828 -2.83454,0.96104 -3.21124,0.9617 -0.37669,6.5e-4 -15.5349,5.62353 -33.6849,12.49528 -18.15,6.87175 -32.79917,12.66526 -34.17417,12.60441 -1.375,-0.0609 -18.90083,-6.1089 -37.32583,-13.17002 z m -20.61514,-10.92712 c -81.256573,136.33084 -40.628287,68.16542 0,0 z"
       id="path2991"
       inkscape:connector-curvature="0" />
  </g>
</svg>
