<?xml version="1.0" encoding="UTF-8" standalone="no"?>
<!-- Created with Inkscape (http://www.inkscape.org/) -->

<svg
   xmlns:dc="http://purl.org/dc/elements/1.1/"
   xmlns:cc="http://creativecommons.org/ns#"
   xmlns:rdf="http://www.w3.org/1999/02/22-rdf-syntax-ns#"
   xmlns:svg="http://www.w3.org/2000/svg"
   xmlns="http://www.w3.org/2000/svg"
   xmlns:sodipodi="http://sodipodi.sourceforge.net/DTD/sodipodi-0.dtd"
   xmlns:inkscape="http://www.inkscape.org/namespaces/inkscape"
   id="svg2"
   version="1.1"
   inkscape:version="0.48.4 r9939"
   width="800"
   height="566"
   sodipodi:docname="iortho.svg">
  <metadata
     id="metadata8">
    <rdf:RDF>
      <cc:Work
         rdf:about="">
        <dc:format>image/svg+xml</dc:format>
        <dc:type
           rdf:resource="http://purl.org/dc/dcmitype/StillImage" />
        <dc:title></dc:title>
      </cc:Work>
    </rdf:RDF>
  </metadata>
  <defs
     id="defs6" />
  <sodipodi:namedview
     pagecolor="#ffffff"
     bordercolor="#666666"
     borderopacity="1"
     objecttolerance="10"
     gridtolerance="10"
     guidetolerance="10"
     inkscape:pageopacity="0"
     inkscape:pageshadow="2"
     inkscape:window-width="1600"
     inkscape:window-height="851"
     id="namedview4"
     showgrid="false"
     inkscape:zoom="0.8"
     inkscape:cx="691.82152"
     inkscape:cy="221.06056"
     inkscape:window-x="-4"
     inkscape:window-y="27"
     inkscape:window-maximized="1"
     inkscape:current-layer="svg2" />
  <path
     inkscape:connector-curvature="0"
     id="path3001"
     d="m 208.21484,400.64646 c 1.23623,-0.37023 1.7407,-6.0425 3.04108,-5.42963 0.42355,0.19962 2.22631,0.85081 3.60738,1.1816 1.6214,0.38835 -0.93107,6.18021 -1.26495,6.95361 -2.03379,3.34706 -7.46964,4.43241 -5.38351,-2.70558 z m 464.80293,12.94018 c 0,-1.00869 -2.70902,-1.81772 -3.85474,-2.14913 -1.5908,-0.46015 -2.30998,-1.23453 -0.0535,-4.05493 0.92296,-1.1536 5.30553,1.58352 5.96313,0.79117 3.49558,3.13798 7.92221,5.81844 -2.05489,5.41289 z m -18.5942,-7.35965 c -3.61648,-1.57069 -4.10387,-4.67415 -0.83299,-5.30406 2.85152,-0.54916 7.65942,1.86213 7.65942,3.8414 0,1.36379 -2.11091,3.23062 -3.33179,2.94653 -0.0925,-0.0215 -1.6651,-0.68927 -3.49464,-1.48387 z M 639.75,401.57549 c -2.78829,-1.60963 -3.55697,-3.05192 -2.38143,-4.46836 1.55468,-1.87327 8.38143,0.76859 8.38143,3.2435 0,2.26183 -3.10551,2.8958 -6,1.22486 z M 624,396.60622 c -3.59745,-1.3381 -3.81265,-4.85622 -0.29705,-4.85622 3.691,0 7.6677,2.1324 7.32582,3.92828 -0.36427,1.91354 -3.32732,2.30472 -7.02877,0.92794 z m -16.5,-5.49526 c -1.64584,-0.69471 -1.60848,-4.00942 0.0524,-4.64675 1.95697,-0.75096 7.9341,2.07352 7.45782,3.52418 -0.43038,1.31085 -5.32934,2.04311 -7.51019,1.12257 z m -9.90625,-3.11589 c -14.55064,-4.23018 -118.4128,-38.7899 -121.6121,-39.24993 -3.72259,-1.03284 -10.47259,-3.20863 -15,-4.83509 -4.52741,-1.62646 -19.70665,-6.63536 -33.73165,-11.1309 -14.025,-4.49553 -31.125,-10.00772 -38,-12.2493 -31.18735,-10.16857 -36.2999,-11.81911 -49,-15.81914 -7.425,-2.33859 -17.1,-5.50843 -21.5,-7.0441 -4.4,-1.53566 -19.645,-6.57651 -33.87777,-11.20188 l -27.64555,-9.29365 -4.53077,2.80602 -0.77428,2.69553 -3.60922,-1.14408 c 0,0 1.59456,-9.69622 3.78688,-10.91156 2.77019,-1.53568 3.61518,-0.10151 5.93537,1.04588 1.0168,0.50284 9.38308,3.86326 36.71534,12.60033 9.9,3.16465 27.225,8.79123 38.5,12.50351 11.275,3.71228 33.325,10.89501 49,15.96162 51.3334,16.59242 56.39957,18.23828 65.5,21.27915 4.95,1.65402 12.73853,5.46154 13.41761,3.12775 1.22935,-4.22492 6.35879,-1.56904 6.62265,-0.77748 -1.33601,4.12332 1.57687,5.14112 10.45974,7.42305 42.03193,14.12702 107.16627,34.69024 121.11024,39.92549 5.88075,3.32718 1.05856,5.28026 -1.76649,4.28878 z m -382.71227,1.05308 c -2.01951,-0.68999 -0.24863,-5.27125 0.90088,-7.41913 1.11772,-2.08847 4.96572,-1.8765 4.36942,-0.026 -2.78098,8.6303 -1.27384,8.81056 -5.2703,7.44511 z M 219.25,371.3151 c 0,-3.73578 1.775,-7.5651 3.50663,-7.5651 2.27177,0 2.83785,2.42618 1.50698,6.45876 -1.41689,4.29321 -5.01361,5.08689 -5.01361,1.10634 z m 5.66667,-13.23177 c -1.14572,-1.14571 -0.72922,-5.86553 0.68872,-7.80468 2.20046,-3.00931 5.0388,-1.24962 4.26059,2.64144 -0.9153,4.57649 -3.17681,6.93575 -4.94931,5.16324 z m 3.86053,-16.28931 c -0.92939,-1.5038 2.28704,-8.27199 3.70857,-7.80377 1.71012,0.56327 2.13845,4.19199 0.79184,6.70817 -1.15175,2.15205 -3.49493,2.72249 -4.50041,1.0956 z m 237.00122,-11.99803 c -1.47576,-2.38783 1.84676,-10.22299 3.98683,-9.40176 1.81743,0.69741 2.02632,7.4142 0.28475,9.15577 -1.44193,1.44193 -3.4606,1.55818 -4.27158,0.24599 z m -231.27624,-3.317 c -1.55673,-1.99741 0.45841,-7.72899 2.71739,-7.72899 2.48587,0 3.36627,1.52575 2.61277,4.52797 -0.76028,3.02918 -3.9644,4.95341 -5.33016,3.20102 z M 470.73492,314.7256 c -0.93592,-1.51435 0.41958,-6.65145 2.12955,-8.0706 1.19211,-0.98936 1.78692,-0.93218 3.00833,0.28923 1.36302,1.36302 1.36311,1.90373 8.4e-4,5.1641 -1.47166,3.52219 -3.8354,4.72609 -5.13872,2.61727 z m -231.77071,-4.27797 c -0.27487,-0.7163 0.11972,-2.7757 0.87688,-4.57643 1.60172,-3.80939 4.71344,-3.97481 5.23927,-0.27852 0.56078,3.942 -4.82572,8.21776 -6.11615,4.85495 z m -82.69254,-17.1621 c 0.42559,-1.87825 1.53794,-5.41264 2.21806,-7.54236 1.09475,-3.42812 1.85798,-5.34193 4.46716,-4.554 1.1626,0.35108 2.71007,0.53582 -1.44315,10.93276 -3.00326,8.5978 -17.25032,8.41816 -5.24207,1.1636 z m 319.4432,6.40763 c -0.78,-1.26206 0.2738,-5.92336 1.73797,-7.68757 1.73062,-2.08527 3.79716,-1.44345 3.79716,1.17931 0,5.57951 -3.53806,9.73959 -5.53513,6.50826 z m -231.40511,-3.37115 c -1.79851,-2.16708 0.41226,-8.57201 2.95878,-8.57201 2.7222,0 3.14347,1.35573 1.73504,5.58377 -1.41534,4.24879 -2.87594,5.17865 -4.69382,2.98824 z m 236.58943,-13.04383 c -0.9573,-2.49469 1.34853,-7.52818 3.44864,-7.52818 1.99959,0 2.44596,2.36894 1.27188,6.75 -0.67792,2.52966 -3.84789,3.05223 -4.72052,0.77818 z M 162.97414,272.8031 c -0.59041,-2.25773 1.1485,-6.77263 2.86654,-7.44268 2.59369,-1.01156 3.81768,1.16279 2.85309,5.06835 -1.09651,4.43966 -4.7797,5.96863 -5.71963,2.37433 z m 69.80451,-3.40849 c -1.19817,-0.87613 -1.61562,-1.97558 -1.18057,-3.10931 0.54723,-1.42606 0.43456,-2.09422 4.41248,-1.06679 4.37706,1.13052 5.56083,2.78189 4.74736,4.90177 -0.74512,1.94174 -5.44071,1.13057 -7.97927,-0.72567 z m 252.31623,-0.17314 c 2.95439,-10.66493 6.88891,-8.24303 5.61275,-3.0239 -0.79139,2.09923 -1.0551,3.43714 -1.37169,4.26214 -1.01947,2.6567 -5.79009,2.48744 -4.24106,-1.23824 z M 219.25,265.45573 c -1.50284,-0.4223 -2.5,-2.13738 -2.5,-3.23526 0,-1.56018 0.73151,-2.51911 2.92675,-1.75801 5.2451,1.8185 6.44542,1.77399 5.24138,4.71 -0.82001,1.99956 0.54216,2.02837 -5.66813,0.28327 z M 204,260.59923 c -1.64851,-0.60899 -2.75,-1.75996 -2.75,-2.87355 0,-2.7858 1.51705,-3.20431 5.53294,-1.52636 2.52726,1.05595 3.51875,2.04376 3.28253,3.27033 -0.40901,2.12382 -2.38031,2.49094 -6.06547,1.12958 z m -35.18604,-1.74574 c -0.97306,-1.57445 0.67213,-10.19673 2.2459,-11.77049 1.68268,-1.68268 7.07593,-1.13583 8.29791,0.84137 1.06564,1.72424 -0.24116,4.58816 -2.10618,3.82563 -4.58592,-1.875 -3.60488,1.11318 -4.63491,3.6875 -1.49861,3.74538 -2.53722,5.4636 -3.80272,3.41599 z M 187.5,254.71884 c -2.92105,-1.17412 -3.07405,-4.96884 -0.20034,-4.96884 3.36974,0 7.95384,2.8273 7.30894,4.50789 -0.63394,1.65202 -3.65758,1.84809 -7.1086,0.46095 z"
     style="fill:#000000"
     sodipodi:nodetypes="csscccssccssscssssssssscssccccssssssccccsssssssccccsssssssssssssssssssssssssssssssssscssccsssssssssssssssssssssccscssssssssssssssssssss" />
  <path
     sodipodi:type="arc"
     style="fill:#000000;fill-opacity:1"
     id="path3109-62-4-6"
     sodipodi:cx="131.25"
     sodipodi:cy="214.75"
     sodipodi:rx="6.875"
     sodipodi:ry="6.875"
     d="m 138.125,214.75 a 6.875,6.875 0 1 1 -13.75,0 6.875,6.875 0 1 1 13.75,0 z"
     transform="matrix(3.1052497,0,0,3.1052497,-186.88029,-438.48284)" />
  <path
     sodipodi:type="arc"
     style="fill:#ffffff;fill-opacity:1"
     id="path3109-6-9-4-1"
     sodipodi:cx="131.25"
     sodipodi:cy="214.75"
     sodipodi:rx="6.875"
     sodipodi:ry="6.875"
     d="m 138.125,214.75 a 6.875,6.875 0 1 1 -13.75,0 6.875,6.875 0 1 1 13.75,0 z"
     transform="matrix(2.6364375,0,0,2.6364375,-125.36546,-337.70491)" />
  <path
     sodipodi:type="arc"
     style="fill:#000000;fill-opacity:1"
     id="path3109-62-4-6-9"
     sodipodi:cx="131.25"
     sodipodi:cy="214.75"
     sodipodi:rx="6.875"
     sodipodi:ry="6.875"
     d="m 138.125,214.75 a 6.875,6.875 0 1 1 -13.75,0 6.875,6.875 0 1 1 13.75,0 z"
     transform="matrix(3.1052497,0,0,3.1052497,3.6255887,-307.62386)" />
  <path
     sodipodi:type="arc"
     style="fill:#ffffff;fill-opacity:1"
     id="path3109-6-9-4-1-2"
     sodipodi:cx="131.25"
     sodipodi:cy="214.75"
     sodipodi:rx="6.875"
     sodipodi:ry="6.875"
     d="m 138.125,214.75 a 6.875,6.875 0 1 1 -13.75,0 6.875,6.875 0 1 1 13.75,0 z"
     transform="matrix(2.6364375,0,0,2.6364375,65.140409,-206.84593)" />
  <text
     xml:space="preserve"
     style="font-size:65.47322845px;font-style:normal;font-weight:normal;line-height:125%;letter-spacing:0px;word-spacing:0px;fill:#000000;fill-opacity:1;stroke:none;font-family:Sans"
     x="154.27654"
     y="286.36337"
     id="text3075-2"
     sodipodi:linespacing="125%"
     transform="matrix(1.5821021,0.41972302,-0.15665898,0.59050968,0,0)"><tspan
       sodipodi:role="line"
       id="tspan3077-5"
       x="154.27654"
       y="286.36337">-</tspan></text>
  <path
     sodipodi:type="arc"
     style="fill:#ff0000;fill-opacity:1"
     id="path3109-08-3-2"
     sodipodi:cx="131.25"
     sodipodi:cy="214.75"
     sodipodi:rx="6.875"
     sodipodi:ry="6.875"
     d="m 138.125,214.75 a 6.875,6.875 0 1 1 -13.75,0 6.875,6.875 0 1 1 13.75,0 z"
     transform="translate(358.72904,45.66282)" />
  <text
     xml:space="preserve"
     style="font-size:40px;font-style:normal;font-weight:normal;line-height:125%;letter-spacing:0px;word-spacing:0px;fill:#000000;fill-opacity:1;stroke:none;font-family:Sans"
     x="486.75052"
     y="224.07805"
     id="text3527-4-4-8"
     sodipodi:linespacing="125%"
     transform="matrix(0.94891959,0.315518,-0.315518,0.94891959,0,0)"><tspan
       sodipodi:role="line"
       id="tspan3529-8-1-1"
       x="486.75052"
       y="224.07805"
       style="font-size:40px">+</tspan></text>
  <path
     sodipodi:type="arc"
     style="fill:#ff0000;fill-opacity:1"
     id="path3109-08-3-2-7"
     sodipodi:cx="131.25"
     sodipodi:cy="214.75"
     sodipodi:rx="6.875"
     sodipodi:ry="6.875"
     d="m 138.125,214.75 a 6.875,6.875 0 1 1 -13.75,0 6.875,6.875 0 1 1 13.75,0 z"
     transform="translate(25.200245,83.498737)" />
  <path
     sodipodi:type="arc"
     style="fill:#000000;fill-opacity:1"
     id="path3109-08-3-2-02-7"
     sodipodi:cx="131.25"
     sodipodi:cy="214.75"
     sodipodi:rx="6.875"
     sodipodi:ry="6.875"
     d="m 138.125,214.75 a 6.875,6.875 0 1 1 -13.75,0 6.875,6.875 0 1 1 13.75,0 z"
     transform="translate(466.875,170)" />
  <path
     sodipodi:type="arc"
     style="fill:#000000;fill-opacity:1"
     id="path3109-08-3-2-02-5"
     sodipodi:cx="131.25"
     sodipodi:cy="214.75"
     sodipodi:rx="6.875"
     sodipodi:ry="6.875"
     d="m 138.125,214.75 a 6.875,6.875 0 1 1 -13.75,0 6.875,6.875 0 1 1 13.75,0 z"
     transform="translate(122.4449,58.707719)" />
  <path
     style="fill:#000000;stroke:#000000;stroke-width:1px;stroke-linecap:butt;stroke-linejoin:miter;stroke-opacity:1"
     d="m 695.63659,419.52031 -20.2729,-15.66857 -4.39468,12.34566 z"
     id="path3223-1-2"
     inkscape:connector-curvature="0" />
  <path
     style="fill:#ffffff;stroke:#000000;stroke-width:0.73439509px;stroke-linecap:butt;stroke-linejoin:miter;stroke-opacity:1"
     d="m 691.14089,417.55174 -14.90163,-11.48967 -3.21695,9.07032 z"
     id="path3223-4-75-5"
     inkscape:connector-curvature="0" />
  <path
     style="fill:#000000;stroke:#000000;stroke-width:1px;stroke-linecap:butt;stroke-linejoin:miter;stroke-opacity:1"
     d="M 203.33831,423.90639 218.145,402.99571 205.62629,399.12139 z"
     id="path3223-1-3"
     inkscape:connector-curvature="0" />
  <path
     style="fill:#ffffff;stroke:#000000;stroke-width:0.73439509px;stroke-linecap:butt;stroke-linejoin:miter;stroke-opacity:1"
     d="m 205.10631,419.32606 10.87395,-15.3567 -9.19368,-2.84529 z"
     id="path3223-4-75-8"
     inkscape:connector-curvature="0" />
  <path
     sodipodi:type="arc"
     style="fill:#000000;fill-opacity:1"
     id="path3109-62-4-6-9-2"
     sodipodi:cx="131.25"
     sodipodi:cy="214.75"
     sodipodi:rx="6.875"
     sodipodi:ry="6.875"
     d="m 138.125,214.75 a 6.875,6.875 0 1 1 -13.75,0 6.875,6.875 0 1 1 13.75,0 z"
     transform="matrix(3.1052497,0,0,3.1052497,-262.60713,-335.08149)" />
  <path
     sodipodi:type="arc"
     style="fill:#ffffff;fill-opacity:1"
     id="path3109-6-9-4-1-2-4"
     sodipodi:cx="131.25"
     sodipodi:cy="214.75"
     sodipodi:rx="6.875"
     sodipodi:ry="6.875"
     d="m 138.125,214.75 a 6.875,6.875 0 1 1 -13.75,0 6.875,6.875 0 1 1 13.75,0 z"
     transform="matrix(2.6364375,0,0,2.6364375,-201.09231,-234.30356)" />
  <text
     xml:space="preserve"
     style="font-size:40px;font-style:normal;font-weight:normal;line-height:125%;letter-spacing:0px;word-spacing:0px;fill:#000000;fill-opacity:1;stroke:none;font-family:Sans"
     x="128.05403"
     y="344.68085"
     id="text3527-4-4-8-1"
     sodipodi:linespacing="125%"><tspan
       sodipodi:role="line"
       id="tspan3529-8-1-1-7"
       x="128.05403"
       y="344.68085"
       style="font-size:40px">+</tspan></text>
  <path
     sodipodi:type="arc"
     style="fill:#000000;fill-opacity:1"
     id="path3109-62-4-6-2"
     sodipodi:cx="131.25"
     sodipodi:cy="214.75"
     sodipodi:rx="6.875"
     sodipodi:ry="6.875"
     d="m 138.125,214.75 a 6.875,6.875 0 1 1 -13.75,0 6.875,6.875 0 1 1 13.75,0 z"
     transform="matrix(3.1052497,0,0,3.1052497,103.65153,-467.89307)" />
  <path
     sodipodi:type="arc"
     style="fill:#ffffff;fill-opacity:1"
     id="path3109-6-9-4-1-7"
     sodipodi:cx="131.25"
     sodipodi:cy="214.75"
     sodipodi:rx="6.875"
     sodipodi:ry="6.875"
     d="m 138.125,214.75 a 6.875,6.875 0 1 1 -13.75,0 6.875,6.875 0 1 1 13.75,0 z"
     transform="matrix(2.6364375,0,0,2.6364375,165.16636,-367.11514)" />
  <text
     xml:space="preserve"
     style="font-size:65.47322845px;font-style:normal;font-weight:normal;line-height:125%;letter-spacing:0px;word-spacing:0px;fill:#000000;fill-opacity:1;stroke:none;font-family:Sans"
     x="-40.587006"
     y="912.49567"
     id="text3075-2-2"
     sodipodi:linespacing="125%"
     transform="matrix(0.46006544,-1.5708451,0.58630806,0.17171654,0,0)"><tspan
       sodipodi:role="line"
       id="tspan3077-5-5"
       x="-40.587006"
       y="912.49567">-</tspan></text>
  <flowRoot
     xml:space="preserve"
     id="flowRoot3243"
     style="font-size:40px;font-style:normal;font-weight:normal;line-height:125%;letter-spacing:0px;word-spacing:0px;fill:#000000;fill-opacity:1;stroke:none;font-family:Sans"
     transform="matrix(0.93906095,0.34375068,-0.34375068,0.93906095,294.97772,115.10668)"><flowRegion
       id="flowRegion3245"><rect
         id="rect3247"
         width="50.381359"
         height="48.61359"
         x="-77.781746"
         y="118.75496" /></flowRegion><flowPara
       id="flowPara3249"
       style="font-size:24px">x</flowPara></flowRoot>  <text
     xml:space="preserve"
     style="font-size:40px;font-style:normal;font-weight:normal;line-height:125%;letter-spacing:0px;word-spacing:0px;fill:#000000;fill-opacity:1;stroke:none;font-family:Sans"
     x="-359.99472"
     y="330.30392"
     id="text3251"
     sodipodi:linespacing="125%"
     transform="matrix(0.31853964,-0.94790954,0.94790954,0.31853964,0,0)"><tspan
       sodipodi:role="line"
       id="tspan3253"
       x="-359.99472"
       y="330.30392"
       style="font-size:24px">y</tspan></text>
  <text
     xml:space="preserve"
     style="font-size:40px;font-style:normal;font-weight:normal;line-height:125%;letter-spacing:0px;word-spacing:0px;fill:#000000;fill-opacity:1;stroke:none;font-family:Sans"
     x="265.29068"
     y="266.06021"
     id="text3255"
     sodipodi:linespacing="125%"><tspan
       sodipodi:role="line"
       id="tspan3257"
       x="265.29068"
       y="266.06021"
       style="font-size:28px">A</tspan></text>
  <text
     xml:space="preserve"
     style="font-size:40px;font-style:normal;font-weight:normal;line-height:125%;letter-spacing:0px;word-spacing:0px;fill:#000000;fill-opacity:1;stroke:none;font-family:Sans"
     x="602.80853"
     y="374.1973"
     id="text3259"
     sodipodi:linespacing="125%"><tspan
       sodipodi:role="line"
       id="tspan3261"
       x="602.80853"
       y="374.1973"
       style="font-size:28px">B</tspan></text>
  <text
     xml:space="preserve"
     style="font-size:40px;font-style:normal;font-weight:normal;line-height:125%;letter-spacing:0px;word-spacing:0px;fill:#000000;fill-opacity:1;stroke:none;font-family:Sans"
     x="409.091"
     y="172.54848"
     id="text3263"
     sodipodi:linespacing="125%"
     transform="matrix(0.95089052,0.30952742,-0.30952742,0.95089052,0,0)"><tspan
       sodipodi:role="line"
       id="tspan3265"
       x="409.091"
       y="172.54848"
       style="font-size:28px">A-B</tspan></text>
  <text
     xml:space="preserve"
     style="font-size:40px;font-style:normal;font-weight:normal;line-height:125%;letter-spacing:0px;word-spacing:0px;fill:#000000;fill-opacity:1;stroke:none;font-family:Sans"
     x="502.92969"
     y="274.31842"
     id="text3267"
     sodipodi:linespacing="125%"><tspan
       sodipodi:role="line"
       id="tspan3269"
       x="502.92969"
       y="274.31842"
       style="font-size:28px">P</tspan></text>
  <text
     xml:space="preserve"
     style="font-size:40px;font-style:normal;font-weight:normal;line-height:125%;letter-spacing:0px;word-spacing:0px;fill:#000000;fill-opacity:1;stroke:none;font-family:Sans"
     x="-302.4498"
     y="258.79312"
     id="text3251-1"
     sodipodi:linespacing="125%"
     transform="matrix(0.36391446,-0.93143237,0.93143237,0.36391446,0,0)"><tspan
       sodipodi:role="line"
       id="tspan3253-9"
       x="-302.4498"
       y="258.79312"
       style="font-size:24px">y</tspan></text>
  <text
     xml:space="preserve"
     style="font-size:40px;font-style:normal;font-weight:normal;line-height:125%;letter-spacing:0px;word-spacing:0px;fill:#000000;fill-opacity:1;stroke:none;font-family:Sans"
     x="-123.23711"
     y="542.88104"
     id="text3251-6"
     sodipodi:linespacing="125%"
     transform="matrix(0.22936569,-0.97334032,0.97334032,0.22936569,0,0)"><tspan
       sodipodi:role="line"
       id="tspan3253-0"
       x="-123.23711"
       y="542.88104"
       style="font-size:24px">y</tspan></text>
  <flowRoot
     xml:space="preserve"
     id="flowRoot3243-7"
     style="font-size:40px;font-style:normal;font-weight:normal;line-height:125%;letter-spacing:0px;word-spacing:0px;fill:#000000;fill-opacity:1;stroke:none;font-family:Sans"
     transform="matrix(0.95915602,0.28287756,-0.28287756,0.95915602,480.09013,237.95673)"><flowRegion
       id="flowRegion3245-8"><rect
         id="rect3247-4"
         width="50.381359"
         height="48.61359"
         x="-77.781746"
         y="118.75496" /></flowRegion><flowPara
       id="flowPara3249-9"
       style="font-size:24px">x</flowPara></flowRoot>  <flowRoot
     xml:space="preserve"
     id="flowRoot3243-7-4"
     style="font-size:40px;font-style:normal;font-weight:normal;line-height:125%;letter-spacing:0px;word-spacing:0px;fill:#000000;fill-opacity:1;stroke:none;font-family:Sans"
     transform="matrix(0.95915602,0.28287756,-0.28287756,0.95915602,778.84013,319.20673)"><flowRegion
       id="flowRegion3245-8-7"><rect
         id="rect3247-4-6"
         width="50.381359"
         height="48.61359"
         x="-77.781746"
         y="118.75496" /></flowRegion><flowPara
       id="flowPara3249-9-6"
       style="font-size:24px">x</flowPara></flowRoot>  <text
     xml:space="preserve"
     style="font-size:40px;font-style:normal;font-weight:normal;line-height:125%;letter-spacing:0px;word-spacing:0px;fill:#000000;fill-opacity:1;stroke:none;font-family:Sans"
     x="126.78017"
     y="299.55051"
     id="text3267-9"
     sodipodi:linespacing="125%"><tspan
       sodipodi:role="line"
       id="tspan3269-1"
       x="126.78017"
       y="299.55051"
       style="font-size:28px">P</tspan></text>
</svg>
