<?xml version="1.0" encoding="utf-8"?>
<!-- Generator: Adobe Illustrator 15.0.0, SVG Export Plug-In . SVG Version: 6.00 Build 0)  -->
<!DOCTYPE svg PUBLIC "-//W3C//DTD SVG 1.1//EN" "http://www.w3.org/Graphics/SVG/1.1/DTD/svg11.dtd">
<svg version="1.1"
	 id="svg2" sodipodi:docname="iortho.svg" inkscape:version="0.48.4 r9939" xmlns:dc="http://purl.org/dc/elements/1.1/" xmlns:cc="http://creativecommons.org/ns#" xmlns:rdf="http://www.w3.org/1999/02/22-rdf-syntax-ns#" xmlns:svg="http://www.w3.org/2000/svg" xmlns:sodipodi="http://sodipodi.sourceforge.net/DTD/sodipodi-0.dtd" xmlns:inkscape="http://www.inkscape.org/namespaces/inkscape"
	 xmlns="http://www.w3.org/2000/svg" xmlns:xlink="http://www.w3.org/1999/xlink" x="0px" y="0px" width="800px" height="566px"
	 viewBox="0 0 800 566" enable-background="new 0 0 800 566" xml:space="preserve">
<sodipodi:namedview  id="namedview4" inkscape:current-layer="svg2" inkscape:window-y="27" inkscape:window-x="-4" inkscape:window-height="851" inkscape:window-width="1600" inkscape:pageshadow="2" inkscape:pageopacity="0" inkscape:cy="221.06056" inkscape:cx="691.82152" inkscape:zoom="0.8" showgrid="false" guidetolerance="10" gridtolerance="10" objecttolerance="10" borderopacity="1" bordercolor="#666666" pagecolor="#ffffff" inkscape:window-maximized="1">
	</sodipodi:namedview>
<path id="path3001" sodipodi:nodetypes="csscccssccssscssssssssscssccccssssssccccsssssssccccsssssssssssssssssssssssssssssssssscssccsssssssssssssssssssssccscssssssssssssssssssss" inkscape:connector-curvature="0" d="
	M599.196,387.45c-14.551-4.23-118.414-38.79-121.613-39.25c-3.723-1.032-10.473-3.208-15-4.835s-19.707-6.635-33.73-11.131
	c-14.025-4.496-31.125-10.008-38-12.25c-31.188-10.168-36.301-11.818-49-15.818c-7.426-2.339-17.101-5.509-21.5-7.045
	c-4.4-1.535-19.646-6.576-33.878-11.201l-27.646-9.294l-4.531,2.806l-0.774,2.696l-3.608-1.145c0,0,1.594-9.696,3.786-10.911
	c2.771-1.536,3.615-0.102,5.936,1.046c1.017,0.503,9.384,3.863,36.716,12.601c9.899,3.164,27.225,8.791,38.5,12.503
	c11.274,3.712,33.324,10.896,49,15.962c51.333,16.592,56.399,18.238,65.5,21.279c4.949,1.654,12.738,5.461,13.416,3.127
	c1.23-4.225,6.359-1.568,6.623-0.777c-1.336,4.123,1.576,5.142,10.461,7.424c42.031,14.127,107.166,34.689,121.109,39.925
	C606.842,386.488,602.02,388.441,599.196,387.45z M464.906,335.421c-1.477-2.388,1.846-10.223,3.986-9.401
	c1.816,0.697,2.025,7.414,0.285,9.155C467.735,336.617,465.717,336.733,464.906,335.421z M469.862,320.351
	c-0.936-1.515,0.42-6.651,2.131-8.07c1.191-0.989,1.787-0.933,3.008,0.289c1.363,1.362,1.363,1.903,0,5.164
	C473.53,321.256,471.166,322.459,469.862,320.351z M474.842,305.318c-0.779-1.262,0.273-5.924,1.738-7.688
	c1.73-2.086,3.797-1.443,3.797,1.18C480.377,304.39,476.84,308.549,474.842,305.318z M480.026,288.903
	c-0.957-2.495,1.35-7.528,3.449-7.528c2,0,2.445,2.369,1.271,6.75C484.069,290.654,480.899,291.178,480.026,288.903z
	 M484.223,274.847c2.953-10.665,6.889-8.243,5.611-3.024c-0.791,2.099-1.055,3.437-1.371,4.262
	C487.444,278.741,482.672,278.572,484.223,274.847z"/>
<path id="path3109-08-3-2" sodipodi:ry="6.875" sodipodi:rx="6.875" sodipodi:cy="214.75" sodipodi:cx="131.25" sodipodi:type="arc" fill="#FF0000" d="
	M503.733,258.968c0,5.886-4.772,10.659-10.659,10.659c-5.886,0-10.658-4.772-10.658-10.659c0-5.887,4.772-10.659,10.658-10.659
	C498.96,248.31,503.733,253.081,503.733,258.968z"/>
<path id="path3109-08-3-2-02-7" sodipodi:ry="6.875" sodipodi:rx="6.875" sodipodi:cy="214.75" sodipodi:cx="131.25" sodipodi:type="arc" d="
	M608.613,384.709c0,5.486-4.447,9.934-9.934,9.934c-5.487,0-9.934-4.447-9.934-9.934c0-5.485,4.446-9.934,9.934-9.934
	C604.165,374.775,608.613,379.224,608.613,384.709z"/>
<path id="path3109-08-3-2-02-5" sodipodi:ry="6.875" sodipodi:rx="6.875" sodipodi:cy="214.75" sodipodi:cx="131.25" sodipodi:type="arc" d="
	M263.415,272.811c0,4.845-3.928,8.772-8.772,8.772s-8.772-3.927-8.772-8.772c0-4.845,3.928-8.772,8.772-8.772
	S263.415,267.966,263.415,272.811z"/>
<path id="path3109-6-9-4-1-7" sodipodi:ry="6.875" sodipodi:rx="6.875" sodipodi:cy="214.75" sodipodi:cx="131.25" sodipodi:type="arc" fill="#FFFFFF" d="
	M529.324,199.06c0,10.011-8.115,18.126-18.126,18.126s-18.125-8.115-18.125-18.126c0-10.01,8.114-18.125,18.125-18.125
	S529.324,189.049,529.324,199.06z"/>
<g id="flowRoot3243" transform="matrix(0.93906095,0.34375068,-0.34375068,0.93906095,294.97772,115.10668)">
</g>
<text transform="matrix(1 0 0 1 265.2903 266.0605)" font-family="'MyriadPro-Regular'" font-size="28">A</text>
<text transform="matrix(1 0 0 1 602.8088 374.1973)" font-family="'MyriadPro-Regular'" font-size="28">B</text>
<text transform="matrix(0.3095 -0.9509 0.9509 0.3095 361.0608 335.3877)" font-family="'MyriadPro-Regular'" font-size="28">y</text>
<text transform="matrix(0.9509 0.3095 -0.3095 0.9509 483.1038 311.7764)" font-family="'MyriadPro-Regular'" font-size="28">x</text>
<text transform="matrix(0.3095 -0.9509 0.9509 0.3095 529.3254 387.708)" font-family="'MyriadPro-Regular'" font-size="28">z</text>
<text transform="matrix(1 0 0 1 511.1975 252.1074)" font-family="'MyriadPro-Regular'" font-size="28">P</text>
<g id="flowRoot3243-7" transform="matrix(0.95915602,0.28287756,-0.28287756,0.95915602,480.09013,237.95673)">
</g>
<g id="flowRoot3243-7-4" transform="matrix(0.95915602,0.28287756,-0.28287756,0.95915602,778.84013,319.20673)">
</g>
</svg>
