<?xml version="1.0" encoding="UTF-8" standalone="no"?>
<!-- Created with Inkscape (http://www.inkscape.org/) -->

<svg
   xmlns:dc="http://purl.org/dc/elements/1.1/"
   xmlns:cc="http://creativecommons.org/ns#"
   xmlns:rdf="http://www.w3.org/1999/02/22-rdf-syntax-ns#"
   xmlns:svg="http://www.w3.org/2000/svg"
   xmlns="http://www.w3.org/2000/svg"
   xmlns:sodipodi="http://sodipodi.sourceforge.net/DTD/sodipodi-0.dtd"
   xmlns:inkscape="http://www.inkscape.org/namespaces/inkscape"
   id="svg2"
   version="1.1"
   inkscape:version="0.48.4 r9939"
   width="470"
   height="206"
   sodipodi:docname="chemiortho.svg">
  <metadata
     id="metadata8">
    <rdf:RDF>
      <cc:Work
         rdf:about="">
        <dc:format>image/svg+xml</dc:format>
        <dc:type
           rdf:resource="http://purl.org/dc/dcmitype/StillImage" />
        <dc:title />
      </cc:Work>
    </rdf:RDF>
  </metadata>
  <defs
     id="defs6" />
  <sodipodi:namedview
     pagecolor="#ffffff"
     bordercolor="#666666"
     borderopacity="1"
     objecttolerance="10"
     gridtolerance="10"
     guidetolerance="10"
     inkscape:pageopacity="0"
     inkscape:pageshadow="2"
     inkscape:window-width="1600"
     inkscape:window-height="851"
     id="namedview4"
     showgrid="false"
     inkscape:zoom="0.3535534"
     inkscape:cx="-1223.9027"
     inkscape:cy="305.11668"
     inkscape:window-x="-4"
     inkscape:window-y="27"
     inkscape:window-maximized="1"
     inkscape:current-layer="svg2" />
  <flowRoot
     xml:space="preserve"
     id="flowRoot3143"
     style="font-size:40px;font-style:normal;font-weight:normal;line-height:125%;letter-spacing:0px;word-spacing:0px;fill:#000000;fill-opacity:1;stroke:none;font-family:Sans"><flowRegion
       id="flowRegion3145"><rect
         id="rect3147"
         width="49.497475"
         height="42.426407"
         x="-825.9007"
         y="44.072548" /></flowRegion><flowPara
       id="flowPara3149">++</flowPara></flowRoot>  <g
     id="g3084"
     transform="translate(-265.87211,31.112691)">
    <g
       id="g3135">
      <path
         inkscape:connector-curvature="0"
         id="path2997"
         d="m -782.53816,-25.543705 c -3.75408,-3.98049 -1.87863,-3.24374 -67.47348,-26.5062 -62.48577,-22.15987 -60.5194,-21.37361 -60.37633,-24.14162 0.068,-1.31601 1.72289,-6.89274 3.67751,-12.39274 11.42348,-32.143915 14.18847,-39.966075 17.32068,-48.999995 1.90694,-5.5 4.40596,-12.37868 5.55338,-15.28594 1.14742,-2.90727 1.82629,-5.54587 1.5086,-5.86356 -0.60762,-0.60762 -6.99118,-2.97632 -25.18384,-9.34479 -13.42207,-4.6985 -26.15531,-9.21261 -33.5,-11.87623 -3.025,-1.09705 -11.93182,-4.26721 -19.79293,-7.04482 l -14.29292,-5.05019 -1.95708,4.56567 c -1.07639,2.51112 -1.95707,4.76129 -1.95707,5.00039 0,0.81147 -13.08071,37.88149 -14.43199,40.89947 -0.73877,1.65 -2.37017,6.30592 -3.62531,10.3465 -1.25515,4.04058 -2.95076,7.60311 -3.76806,7.91673 -1.6092,0.61748 -9.5288,-1.91905 -38.1746,-12.22668 -10.175,-3.66128 -26.15,-9.3522 -35.5,-12.64649 -9.35,-3.2943 -18.7544,-6.66535 -20.8987,-7.49122 -2.1442,-0.82588 -4.1972,-1.14097 -4.562,-0.70022 -0.8098,0.97812 -5.7966,14.44457 -10.11,27.30138 -1.753,5.225 -3.9989,10.35715 -4.9909,11.40478 -1.7712,1.87064 -1.9437,1.85813 -9.621,-0.69787 -4.2996,-1.43146 -15.4674,-5.35487 -24.8174,-8.71871 -9.35,-3.36383 -25.325,-9.03123 -35.5,-12.59422 -10.175,-3.563 -21.7398,-7.6362 -25.6994,-9.05156 -5.8302,-2.08397 -7.7558,-2.37941 -10.1252,-1.55344 -7.7856,2.71409 -12.516,-6.89887 -5.6186,-11.41819 3.1153,-2.04121 6.8811,-0.69858 8.5957,3.0647 0.6177,1.35573 2.2986,2.89858 3.7353,3.42858 15.1866,5.6023 37.7202,13.69994 42.1122,15.13337 3.025,0.98728 11.35,3.90498 18.5,6.48378 7.15,2.57879 17.275,6.17683 22.5,7.99565 5.225,1.81881 10.2107,3.59926 11.0794,3.95656 1.9134,0.78702 2.6486,-0.82383 10.6956,-23.43343 4.8074,-13.5075 6.244,-16.55493 7.9211,-16.80283 1.766,-0.26106 21.238,6.31605 49.8039,16.82238 10.6042,3.90016 43.4341,15.56328 46.1193,16.3843 2.3507,0.71872 2.2419,0.99117 23.85573,-59.73561 1.53311,-4.30747 3.44301,-8.08332 4.24423,-8.39077 0.80121,-0.30745 2.87964,-0.0916 4.61872,0.47965 3.95952,1.30064 46.89759,16.58347 55.66198,19.81162 3.575,1.31676 13.86091,4.96682 22.85757,8.11123 8.99667,3.14441 16.60592,6.36428 16.90945,7.15527 0.64166,1.67213 -1.98721,9.6911 -15.78991,48.16476 -8.90287,24.815875 -12.17552,35.199945 -11.34318,35.991835 0.8066,0.76741 5.47069,2.50306 39.11919,14.55746 7.01078,2.51158 16.57188,5.94345 21.24688,7.62638 4.675,1.68293 11.425,4.10238 15,5.37654 3.575,1.27417 15.40177,5.50437 26.28171,9.40044 15.4902,5.547 20.19445,6.86287 21.68426,6.06555 2.9224,-1.56402 6.54745,-1.21336 8.37904,0.81053 2.42686,2.68165 2.12912,7.72576 -0.56752,9.61456 -3.38462,2.37068 -5.72507,1.89204 -9.30401,-1.90274 z m 6.52652,-3.04056 c 0,-0.825 -0.42344,-1.5 -0.94098,-1.5 -1.26098,0 -2.1641,1.56159 -1.36517,2.36052 1.12619,1.12618 2.30615,0.68589 2.30615,-0.86052 z M -1222.0116,-156.08426 c 0,-0.55 -0.675,-1 -1.5,-1 -0.825,0 -1.5,0.45 -1.5,1 0,0.55 0.675,1 1.5,1 0.825,0 1.5,-0.45 1.5,-1 z"
         style="fill:#000000"
         sodipodi:nodetypes="sscssssssscsssssssscsssssssssssssssssssssssssssssssssssssssssss" />
      <path
         sodipodi:type="arc"
         style="fill:#000000;fill-opacity:1"
         id="path3015"
         sodipodi:cx="-349.28174"
         sodipodi:cy="174.90802"
         sodipodi:rx="14.150422"
         sodipodi:ry="14.150422"
         d="m -335.13132,174.90802 c 0,7.81506 -6.33536,14.15042 -14.15042,14.15042 -7.81506,0 -14.15042,-6.33536 -14.15042,-14.15042 0,-7.81506 6.33536,-14.15042 14.15042,-14.15042 7.81506,0 14.15042,6.33536 14.15042,14.15042 z"
         transform="translate(-595.35413,-219.38014)" />
      <path
         transform="matrix(0.84862385,0,0,0.84862385,-648.22706,-192.90324)"
         sodipodi:type="arc"
         style="fill:#ffffff;fill-opacity:1"
         id="path3015-9"
         sodipodi:cx="-349.28174"
         sodipodi:cy="174.90802"
         sodipodi:rx="14.150422"
         sodipodi:ry="14.150422"
         d="m -335.13132,174.90802 c 0,7.81506 -6.33536,14.15042 -14.15042,14.15042 -7.81506,0 -14.15042,-6.33536 -14.15042,-14.15042 0,-7.81506 6.33536,-14.15042 14.15042,-14.15042 7.81506,0 14.15042,6.33536 14.15042,14.15042 z" />
      <path
         style="fill:#000000;fill-opacity:1"
         d="m -963.45851,-32.763255 c -2.64788,-2.14908 -4.79126,-3.92785 -4.76306,-3.95282 1.09098,-0.27198 2.92334,-1.34986 3.00731,-1.40515 -0.28707,-1.64391 -0.91616,-5.21707 -0.85081,-7.08246 0.0751,-2.14298 0.33224,-4.19921 1.08686,-6.17862 1.02944,-2.70028 2.66921,-5.40623 4.6231,-7.19745 2.69544,-2.47105 6.00627,-4.18244 8.31157,-4.97424 3.28804,-0.88209 4.38887,-1.10477 7.76906,-1.34812 0.0912,0.66099 0.15586,2.20525 0.14101,2.81671 -1.63509,0.1475 -3.42924,0.33495 -4.89932,0.70629 -1.40976,0.36321 -2.48226,0.76351 -3.81832,1.42513 -2.55602,1.26577 -4.55733,2.50378 -6.4273,4.83727 -2.2404,2.45255 -3.18902,6.10858 -3.60837,8.53553 -0.51825,1.9498 0.0827,4.84352 0.85429,7.09975 0.0291,0.0318 0.47479,-0.0111 1.3341,-0.34219 0.88096,-0.3394 1.55823,-0.56699 1.58042,-0.53108 0.044,0.0712 0.53876,11.43428 0.49956,11.47348 -0.014,0.014 -2.19183,-1.73297 -4.83971,-3.88206 l 0,0 z"
         id="path3037"
         inkscape:connector-curvature="0"
         sodipodi:nodetypes="cccsssccccscccscsccc" />
      <path
         sodipodi:type="arc"
         style="fill:#000000;fill-opacity:1"
         id="path3015-96"
         sodipodi:cx="-349.28174"
         sodipodi:cy="174.90802"
         sodipodi:rx="14.150422"
         sodipodi:ry="14.150422"
         d="m -335.13132,174.90802 c 0,7.81506 -6.33536,14.15042 -14.15042,14.15042 -7.81506,0 -14.15042,-6.33536 -14.15042,-14.15042 0,-7.81506 6.33536,-14.15042 14.15042,-14.15042 7.81506,0 14.15042,6.33536 14.15042,14.15042 z"
         transform="matrix(-1,0,0,1,-1172.8537,-358.36866)" />
      <path
         transform="matrix(-0.84862385,0,0,0.84862385,-1119.9807,-331.89176)"
         sodipodi:type="arc"
         style="fill:#ffffff;fill-opacity:1"
         id="path3015-9-9"
         sodipodi:cx="-349.28174"
         sodipodi:cy="174.90802"
         sodipodi:rx="14.150422"
         sodipodi:ry="14.150422"
         d="m -335.13132,174.90802 c 0,7.81506 -6.33536,14.15042 -14.15042,14.15042 -7.81506,0 -14.15042,-6.33536 -14.15042,-14.15042 0,-7.81506 6.33536,-14.15042 14.15042,-14.15042 7.81506,0 14.15042,6.33536 14.15042,14.15042 z" />
      <path
         style="fill:#000000;fill-opacity:1"
         d="m -804.74926,-171.75177 c 2.64788,-2.14908 4.79126,-3.92785 4.76306,-3.95282 -1.09098,-0.27198 -2.92334,-1.34986 -3.00731,-1.40515 0.28707,-1.64391 0.91616,-5.21707 0.85081,-7.08246 -0.0751,-2.14298 -0.33224,-4.19921 -1.08686,-6.17862 -1.02944,-2.70028 -2.66921,-5.40623 -4.6231,-7.19745 -2.69544,-2.47105 -6.00627,-4.18244 -8.31157,-4.97424 -3.28804,-0.88209 -4.38887,-1.10477 -7.76906,-1.34812 -0.0912,0.66099 -0.15586,2.20525 -0.14101,2.81671 1.63509,0.1475 3.42924,0.33495 4.89932,0.70629 1.40976,0.36321 2.48226,0.76351 3.81832,1.42513 2.55602,1.26577 4.55733,2.50378 6.4273,4.83727 2.2404,2.45255 3.18902,6.10858 3.60837,8.53553 0.51825,1.9498 -0.0827,4.84352 -0.85429,7.09975 -0.0291,0.0318 -0.47479,-0.0111 -1.3341,-0.34219 -0.88096,-0.3394 -1.55823,-0.56699 -1.58042,-0.53108 -0.044,0.0712 -0.53876,11.43428 -0.49956,11.47348 0.014,0.014 2.19183,-1.73297 4.83971,-3.88206 l 0,0 z"
         id="path3037-8"
         inkscape:connector-curvature="0"
         sodipodi:nodetypes="cccsssccccscccscsccc" />
      <path
         sodipodi:type="arc"
         style="fill:#000000;fill-opacity:1"
         id="path3015-1"
         sodipodi:cx="-349.28174"
         sodipodi:cy="174.90802"
         sodipodi:rx="14.150422"
         sodipodi:ry="14.150422"
         d="m -335.13132,174.90802 c 0,7.81506 -6.33536,14.15042 -14.15042,14.15042 -7.81506,0 -14.15042,-6.33536 -14.15042,-14.15042 0,-7.81506 6.33536,-14.15042 14.15042,-14.15042 7.81506,0 14.15042,6.33536 14.15042,14.15042 z"
         transform="translate(-837.35461,-269.86866)" />
      <path
         transform="matrix(0.84862385,0,0,0.84862385,-890.22755,-243.39176)"
         sodipodi:type="arc"
         style="fill:#ffffff;fill-opacity:1"
         id="path3015-9-5"
         sodipodi:cx="-349.28174"
         sodipodi:cy="174.90802"
         sodipodi:rx="14.150422"
         sodipodi:ry="14.150422"
         d="m -335.13132,174.90802 c 0,7.81506 -6.33536,14.15042 -14.15042,14.15042 -7.81506,0 -14.15042,-6.33536 -14.15042,-14.15042 0,-7.81506 6.33536,-14.15042 14.15042,-14.15042 7.81506,0 14.15042,6.33536 14.15042,14.15042 z" />
      <path
         transform="translate(-654.85413,-229.38014)"
         sodipodi:type="arc"
         style="fill:#000000;fill-opacity:1"
         id="path3098"
         sodipodi:cx="-568.8125"
         sodipodi:cy="73.375"
         sodipodi:rx="7.9375"
         sodipodi:ry="7.9375"
         d="m -560.875,73.375 c 0,4.38376 -3.55374,7.9375 -7.9375,7.9375 -4.38376,0 -7.9375,-3.55374 -7.9375,-7.9375 0,-4.38376 3.55374,-7.9375 7.9375,-7.9375 4.38376,0 7.9375,3.55374 7.9375,7.9375 z" />
      <path
         transform="translate(-208.35416,-102.13015)"
         sodipodi:type="arc"
         style="fill:#000000;fill-opacity:1"
         id="path3098-2"
         sodipodi:cx="-568.8125"
         sodipodi:cy="73.375"
         sodipodi:rx="7.9375"
         sodipodi:ry="7.9375"
         d="m -560.875,73.375 c 0,4.38376 -3.55374,7.9375 -7.9375,7.9375 -4.38376,0 -7.9375,-3.55374 -7.9375,-7.9375 0,-4.38376 3.55374,-7.9375 7.9375,-7.9375 4.38376,0 7.9375,3.55374 7.9375,7.9375 z" />
      <path
         transform="matrix(0.70866142,0,0,0.70866142,-374.07116,-80.753175)"
         sodipodi:type="arc"
         style="fill:#ffffff;fill-opacity:1"
         id="path3098-3"
         sodipodi:cx="-568.8125"
         sodipodi:cy="73.375"
         sodipodi:rx="7.9375"
         sodipodi:ry="7.9375"
         d="m -560.875,73.375 c 0,4.38376 -3.55374,7.9375 -7.9375,7.9375 -4.38376,0 -7.9375,-3.55374 -7.9375,-7.9375 0,-4.38376 3.55374,-7.9375 7.9375,-7.9375 4.38376,0 7.9375,3.55374 7.9375,7.9375 z" />
      <path
         transform="matrix(0.70866142,0,0,0.70866142,-820.50865,-208.06567)"
         sodipodi:type="arc"
         style="fill:#ffffff;fill-opacity:1"
         id="path3098-3-3"
         sodipodi:cx="-568.8125"
         sodipodi:cy="73.375"
         sodipodi:rx="7.9375"
         sodipodi:ry="7.9375"
         d="m -560.875,73.375 c 0,4.38376 -3.55374,7.9375 -7.9375,7.9375 -4.38376,0 -7.9375,-3.55374 -7.9375,-7.9375 0,-4.38376 3.55374,-7.9375 7.9375,-7.9375 4.38376,0 7.9375,3.55374 7.9375,7.9375 z" />
      <text
         xml:space="preserve"
         style="font-size:28.70394135px;font-style:normal;font-weight:normal;line-height:125%;letter-spacing:0px;word-spacing:0px;fill:#000000;fill-opacity:1;stroke:none;font-family:Sans"
         x="-1198.8365"
         y="-85.611053"
         id="text3151"
         sodipodi:linespacing="125%"><tspan
           sodipodi:role="line"
           id="tspan3153"
           x="-1198.8365"
           y="-85.611053">+</tspan></text>
      <text
         xml:space="preserve"
         style="font-size:28.70394135px;font-style:normal;font-weight:normal;line-height:125%;letter-spacing:0px;word-spacing:0px;fill:#000000;fill-opacity:1;stroke:none;font-family:Sans"
         x="-835.87805"
         y="-174.18826"
         id="text3151-8"
         sodipodi:linespacing="125%"><tspan
           sodipodi:role="line"
           id="tspan3153-5"
           x="-835.87805"
           y="-174.18826">+</tspan></text>
      <flowRoot
         xml:space="preserve"
         id="flowRoot3176"
         style="font-size:40px;font-style:normal;font-weight:normal;line-height:125%;letter-spacing:0px;word-spacing:0px;fill:#000000;fill-opacity:1;stroke:none;font-family:Sans"
         transform="matrix(0.86389524,0,0,1,-315.56196,-173.5187)"><flowRegion
           id="flowRegion3178"><rect
             id="rect3180"
             width="88.388344"
             height="60.104076"
             x="-738.21948"
             y="80.842102" /></flowRegion><flowPara
           id="flowPara3182">_</flowPara></flowRoot>      <text
         xml:space="preserve"
         style="font-size:28.70394135px;font-style:normal;font-weight:normal;line-height:125%;letter-spacing:0px;word-spacing:0px;fill:#000000;fill-opacity:1;stroke:none;font-family:Sans"
         x="-1173.168"
         y="-148.73241"
         id="text3151-1"
         sodipodi:linespacing="125%"><tspan
           sodipodi:role="line"
           id="tspan3153-7"
           x="-1173.168"
           y="-148.73241">+</tspan></text>
      <text
         xml:space="preserve"
         style="font-size:28.70394135px;font-style:normal;font-weight:normal;line-height:125%;letter-spacing:0px;word-spacing:0px;fill:#000000;fill-opacity:1;stroke:none;font-family:Sans"
         x="-1053.6669"
         y="-150.85373"
         id="text3151-9"
         sodipodi:linespacing="125%"><tspan
           sodipodi:role="line"
           id="tspan3153-1"
           x="-1053.6669"
           y="-150.85373">+</tspan></text>
      <text
         xml:space="preserve"
         style="font-size:28.70394135px;font-style:normal;font-weight:normal;line-height:125%;letter-spacing:0px;word-spacing:0px;fill:#000000;fill-opacity:1;stroke:none;font-family:Sans"
         x="-929.21613"
         y="-186.91618"
         id="text3151-5"
         sodipodi:linespacing="125%"><tspan
           sodipodi:role="line"
           id="tspan3153-4"
           x="-929.21613"
           y="-186.91618">+</tspan></text>
      <text
         xml:space="preserve"
         style="font-size:28.70394135px;font-style:normal;font-weight:normal;line-height:125%;letter-spacing:0px;word-spacing:0px;fill:#000000;fill-opacity:1;stroke:none;font-family:Sans"
         x="-884.6684"
         y="-99.23494"
         id="text3151-98"
         sodipodi:linespacing="125%"><tspan
           sodipodi:role="line"
           id="tspan3153-2"
           x="-884.6684"
           y="-99.23494">+</tspan></text>
      <flowRoot
         xml:space="preserve"
         id="flowRoot3176-4"
         style="font-size:40px;font-style:normal;font-weight:normal;line-height:125%;letter-spacing:0px;word-spacing:0px;fill:#000000;fill-opacity:1;stroke:none;font-family:Sans"
         transform="matrix(0.86389524,0,0,1,-465.56983,-256.78277)"><flowRegion
           id="flowRegion3178-9"><rect
             id="rect3180-3"
             width="88.388344"
             height="60.104076"
             x="-738.21948"
             y="80.842102" /></flowRegion><flowPara
           id="flowPara3182-6">_</flowPara></flowRoot>      <flowRoot
         xml:space="preserve"
         id="flowRoot3176-7"
         style="font-size:40px;font-style:normal;font-weight:normal;line-height:125%;letter-spacing:0px;word-spacing:0px;fill:#000000;fill-opacity:1;stroke:none;font-family:Sans"
         transform="matrix(0.86389524,0,0,1,-340.41193,-287.18836)"><flowRegion
           id="flowRegion3178-4"><rect
             id="rect3180-6"
             width="88.388344"
             height="60.104076"
             x="-738.21948"
             y="80.842102" /></flowRegion><flowPara
           id="flowPara3182-2">_</flowPara></flowRoot>      <flowRoot
         xml:space="preserve"
         id="flowRoot3176-9"
         style="font-size:40px;font-style:normal;font-weight:normal;line-height:125%;letter-spacing:0px;word-spacing:0px;fill:#000000;fill-opacity:1;stroke:none;font-family:Sans"
         transform="matrix(0.86389524,0,0,1,-205.35456,-192.43605)"><flowRegion
           id="flowRegion3178-6"><rect
             id="rect3180-9"
             width="88.388344"
             height="60.104076"
             x="-738.21948"
             y="80.842102" /></flowRegion><flowPara
           id="flowPara3182-3">_</flowPara></flowRoot>      <flowRoot
         xml:space="preserve"
         id="flowRoot3294"
         style="font-size:40px;font-style:normal;font-weight:normal;line-height:125%;letter-spacing:0px;word-spacing:0px;fill:#000000;fill-opacity:1;stroke:none;font-family:Sans"
         transform="translate(-490.80536,-217.35932)"><flowRegion
           id="flowRegion3296"><rect
             id="rect3298"
             width="108.89445"
             height="68.589355"
             x="-763.67529"
             y="-4.0107131" /></flowRegion><flowPara
           id="flowPara3300">A</flowPara></flowRoot>      <flowRoot
         xml:space="preserve"
         id="flowRoot3302"
         style="font-size:40px;font-style:normal;font-weight:normal;line-height:125%;letter-spacing:0px;word-spacing:0px;fill:#000000;fill-opacity:1;stroke:none;font-family:Sans"
         transform="translate(-89.87576,-271.80655)"><flowRegion
           id="flowRegion3304"><rect
             id="rect3306"
             width="132.93608"
             height="103.94469"
             x="-668.92303"
             y="193.27208" /></flowRegion><flowPara
           id="flowPara3308">B</flowPara></flowRoot>    </g>
  </g>
</svg>
