<?xml version="1.0" encoding="UTF-8" standalone="no"?>
<!-- Created with Inkscape (http://www.inkscape.org/) -->

<svg
   xmlns:dc="http://purl.org/dc/elements/1.1/"
   xmlns:cc="http://creativecommons.org/ns#"
   xmlns:rdf="http://www.w3.org/1999/02/22-rdf-syntax-ns#"
   xmlns:svg="http://www.w3.org/2000/svg"
   xmlns="http://www.w3.org/2000/svg"
   xmlns:sodipodi="http://sodipodi.sourceforge.net/DTD/sodipodi-0.dtd"
   xmlns:inkscape="http://www.inkscape.org/namespaces/inkscape"
   id="svg2"
   version="1.1"
   inkscape:version="0.48.4 r9939"
   width="658"
   height="662"
   sodipodi:docname="parallel_displacement.svg"
   inkscape:export-filename="C:\Users\rachel.bullinge\Desktop\parallel_displacement.png"
   inkscape:export-xdpi="30.693872"
   inkscape:export-ydpi="30.693872">
  <metadata
     id="metadata8">
    <rdf:RDF>
      <cc:Work
         rdf:about="">
        <dc:format>image/svg+xml</dc:format>
        <dc:type
           rdf:resource="http://purl.org/dc/dcmitype/StillImage" />
        <dc:title></dc:title>
      </cc:Work>
    </rdf:RDF>
  </metadata>
  <defs
     id="defs6" />
  <sodipodi:namedview
     pagecolor="#ffffff"
     bordercolor="#666666"
     borderopacity="1"
     objecttolerance="10"
     gridtolerance="10"
     guidetolerance="10"
     inkscape:pageopacity="0"
     inkscape:pageshadow="2"
     inkscape:window-width="1196"
     inkscape:window-height="1002"
     id="namedview4"
     showgrid="false"
     inkscape:zoom="1"
     inkscape:cx="326.53903"
     inkscape:cy="362.69002"
     inkscape:window-x="76"
     inkscape:window-y="-8"
     inkscape:window-maximized="1"
     inkscape:current-layer="g3293"
     showguides="true"
     inkscape:guide-bbox="true" />
  <path
     style="fill:#000000;fill-opacity:1"
     d=""
     id="path3004"
     inkscape:connector-curvature="0" />
  <flowRoot
     transform="translate(11.220337,-5.6101699)"
     style="font-size:8px;font-style:normal;font-weight:normal;line-height:125%;letter-spacing:0px;word-spacing:0px;fill:#000000;fill-opacity:1;stroke:none;font-family:Sans"
     id="flowRoot3026"
     xml:space="preserve"><flowRegion
       id="flowRegion3028"><rect
         style="font-size:8px"
         y="-90.36161"
         x="182.43355"
         height="57.982758"
         width="219.20309"
         id="rect3030" /></flowRegion><flowPara
       id="flowPara3032" /></flowRoot>  <flowRoot
     style="font-size:40px;font-style:normal;font-weight:normal;line-height:125%;letter-spacing:0px;word-spacing:0px;fill:#000000;fill-opacity:1;stroke:none;font-family:Sans"
     id="flowRoot3480"
     xml:space="preserve"><flowRegion
       id="flowRegion3482"><rect
         y="221.47247"
         x="-725.49158"
         height="72.832001"
         width="91.216774"
         id="rect3484" /></flowRegion><flowPara
       id="flowPara3486" /></flowRoot>  <path
     inkscape:connector-curvature="0"
     id="path4385"
     d=""
     style="fill:#00ff00;fill-opacity:1" />
  <path
     inkscape:connector-curvature="0"
     id="path4387"
     d=""
     style="fill:#00ff00;fill-opacity:1" />
  <g
     id="g3293">
    <rect
       style="fill:#00ff00;fill-opacity:1"
       id="rect4447-0"
       width="259.19077"
       height="2.4847841"
       x="-386.69098"
       y="480.23239"
       transform="matrix(0.57107147,-0.82090035,0.83541951,0.54961281,0,0)" />
    <rect
       style="fill:#00ff00;fill-opacity:1"
       id="rect4447-4-4"
       width="259.19077"
       height="2.4847841"
       x="-375.33871"
       y="496.34888"
       transform="matrix(0.57107147,-0.82090035,0.83541951,0.54961281,0,0)" />
    <rect
       style="fill:#00ff00;fill-opacity:1"
       id="rect4447-9-0"
       width="259.19077"
       height="2.4847841"
       x="-365.94244"
       y="513.31958"
       transform="matrix(0.57107147,-0.82090035,0.83541951,0.54961281,0,0)" />
    <rect
       style="fill:#00ff00;fill-opacity:1"
       id="rect4447-4-1-10"
       width="259.19077"
       height="2.4847841"
       x="-354.59018"
       y="529.43573"
       transform="matrix(0.57107147,-0.82090035,0.83541951,0.54961281,0,0)" />
    <rect
       style="fill:#00ff00;fill-opacity:1"
       id="rect4447-3-3"
       width="259.19077"
       height="2.4847841"
       x="-346.16199"
       y="545.17078"
       transform="matrix(0.57107147,-0.82090035,0.83541951,0.54961281,0,0)" />
    <rect
       style="fill:#00ff00;fill-opacity:1"
       id="rect4447-4-5-0"
       width="259.19077"
       height="2.4847841"
       x="-334.80972"
       y="561.28687"
       transform="matrix(0.57107147,-0.82090035,0.83541951,0.54961281,0,0)" />
    <rect
       style="fill:#00ff00;fill-opacity:1"
       id="rect4447-9-4-8"
       width="259.19077"
       height="2.4847841"
       x="-325.41345"
       y="578.25732"
       transform="matrix(0.57107147,-0.82090035,0.83541951,0.54961281,0,0)" />
    <rect
       style="fill:#00ff00;fill-opacity:1"
       id="rect4447-4-1-1-80"
       width="259.19077"
       height="2.4847841"
       x="-314.06122"
       y="594.37354"
       transform="matrix(0.57107147,-0.82090035,0.83541951,0.54961281,0,0)" />
    <rect
       style="fill:#00ff00;fill-opacity:1"
       id="rect4447-6-9"
       width="259.19077"
       height="2.4847841"
       x="-302.1615"
       y="611.20361"
       transform="matrix(0.57107147,-0.82090035,0.83541951,0.54961281,0,0)" />
    <rect
       style="fill:#00ff00;fill-opacity:1"
       id="rect4447-4-9-2"
       width="259.19077"
       height="2.4847841"
       x="-288.2532"
       y="627.78076"
       transform="matrix(0.57107147,-0.82090035,0.83541951,0.54961281,0,0)" />
    <rect
       style="fill:#00ff00;fill-opacity:1"
       id="rect4447-9-9-5"
       width="259.19077"
       height="2.4847841"
       x="-278.85699"
       y="644.75116"
       transform="matrix(0.57107147,-0.82090035,0.83541951,0.54961281,0,0)" />
    <rect
       style="fill:#00ff00;fill-opacity:1"
       id="rect4447-4-1-9-7"
       width="259.19077"
       height="2.4847841"
       x="-267.50467"
       y="660.867"
       transform="matrix(0.57107147,-0.82090035,0.83541951,0.54961281,0,0)" />
    <rect
       style="fill:#00ff00;fill-opacity:1"
       id="rect4447-3-6-2"
       width="248.18584"
       height="2.8306513"
       x="-259.07654"
       y="676.60187"
       transform="matrix(0.57107147,-0.82090035,0.83541951,0.54961281,0,0)" />
    <rect
       style="fill:#00ff00;fill-opacity:1"
       id="rect4447-4-5-3-6"
       width="218.37622"
       height="2.7815053"
       x="-247.72421"
       y="692.71796"
       transform="matrix(0.57107147,-0.82090035,0.83541951,0.54961281,0,0)" />
    <rect
       style="fill:#00ff00;fill-opacity:1"
       id="rect4447-9-4-0-2"
       width="187.54218"
       height="2.8805666"
       x="-238.32796"
       y="709.68842"
       transform="matrix(0.57107147,-0.82090035,0.83541951,0.54961281,0,0)" />
    <rect
       style="fill:#00ff00;fill-opacity:1"
       id="rect4447-4-1-1-8-0"
       width="151.7179"
       height="3.07847"
       x="-225.96147"
       y="727.31952"
       transform="matrix(0.57107147,-0.82090035,0.83541951,0.54961281,0,0)" />
    <rect
       style="fill:#00ff00;fill-opacity:1"
       id="rect4447-5-4"
       width="115.64005"
       height="2.897645"
       x="-212.14584"
       y="745.65198"
       transform="matrix(0.57107147,-0.82090035,0.83541951,0.54961281,0,0)" />
    <rect
       style="fill:#00ff00;fill-opacity:1"
       id="rect4447-4-0-7"
       width="85.576851"
       height="2.4697707"
       x="-200.79346"
       y="761.76837"
       transform="matrix(0.57107147,-0.82090035,0.83541951,0.54961281,0,0)" />
    <rect
       style="fill:#00ff00;fill-opacity:1"
       id="rect4447-9-5-0"
       width="54.357384"
       height="2.8322999"
       x="-191.3972"
       y="778.73907"
       transform="matrix(0.57107147,-0.82090035,0.83541951,0.54961281,0,0)" />
    <rect
       style="fill:#00ff00;fill-opacity:1"
       id="rect4447-0-80-5"
       width="76.620781"
       height="2.5193083"
       x="-296.05164"
       y="349.2908"
       transform="matrix(0.57107147,-0.82090035,0.83541951,0.54961281,0,0)" />
    <rect
       style="fill:#00ff00;fill-opacity:1"
       id="rect4447-0-0-56-9"
       width="135.98651"
       height="2.2388387"
       x="-340.09918"
       y="365.73706"
       transform="matrix(0.57107147,-0.82090035,0.83541951,0.54961281,0,0)" />
    <rect
       style="fill:#00ff00;fill-opacity:1"
       id="rect4447-0-8-04-1"
       width="195.60577"
       height="2.3371024"
       x="-390.3222"
       y="382.60928"
       transform="matrix(0.57107147,-0.82090035,0.83541951,0.54961281,0,0)" />
    <rect
       style="fill:#00ff00;fill-opacity:1"
       id="rect4447-0-0-1-3-5"
       width="259.19077"
       height="2.4847841"
       x="-442.55499"
       y="398.57794"
       transform="matrix(0.57107147,-0.82090035,0.83541951,0.54961281,0,0)" />
    <rect
       style="fill:#00ff00;fill-opacity:1"
       id="rect4447-0-2-1-6"
       width="259.19077"
       height="2.4847841"
       x="-434.1268"
       y="414.31287"
       transform="matrix(0.57107147,-0.82090035,0.83541951,0.54961281,0,0)" />
    <rect
       style="fill:#00ff00;fill-opacity:1"
       id="rect4447-0-0-5-8-6"
       width="259.19077"
       height="2.4847841"
       x="-422.77454"
       y="430.42932"
       transform="matrix(0.57107147,-0.82090035,0.83541951,0.54961281,0,0)" />
    <rect
       style="fill:#00ff00;fill-opacity:1"
       id="rect4447-0-8-0-55-3"
       width="259.19077"
       height="2.4847841"
       x="-413.37827"
       y="447.40005"
       transform="matrix(0.57107147,-0.82090035,0.83541951,0.54961281,0,0)" />
    <rect
       style="fill:#00ff00;fill-opacity:1"
       id="rect4447-0-0-1-4-1-1"
       width="259.19077"
       height="2.4847841"
       x="-402.026"
       y="463.51675"
       transform="matrix(0.57107147,-0.82090035,0.83541951,0.54961281,0,0)" />
    <rect
       transform="matrix(0,1,-1,0,0,0)"
       style="fill:#000000;fill-opacity:1"
       id="rect3087-2-0"
       width="5.8064961"
       height="16.746948"
       x="368.67798"
       y="-171.78239" />
    <rect
       transform="matrix(0,1,-1,0,0,0)"
       style="fill:#000000;fill-opacity:1"
       id="rect3087-2-8-5"
       width="5.8064961"
       height="16.746948"
       x="368.74057"
       y="-198.85229" />
    <rect
       transform="matrix(0,1,-1,0,0,0)"
       style="fill:#000000;fill-opacity:1"
       id="rect3087-2-4-3"
       width="5.8064961"
       height="16.746948"
       x="368.74057"
       y="-225.44044" />
    <rect
       transform="matrix(0,1,-1,0,0,0)"
       style="fill:#000000;fill-opacity:1"
       id="rect3087-2-84-45"
       width="5.8064961"
       height="16.746948"
       x="368.74057"
       y="-253.27968" />
    <rect
       transform="matrix(0,1,-1,0,0,0)"
       style="fill:#000000;fill-opacity:1"
       id="rect3087-2-1-5"
       width="5.8064961"
       height="16.746948"
       x="368.48978"
       y="-280.44617" />
    <rect
       transform="matrix(0,1,-1,0,0,0)"
       style="fill:#000000;fill-opacity:1"
       id="rect3087-2-8-9-6"
       width="5.8064961"
       height="16.746948"
       x="368.55237"
       y="-307.51602" />
    <rect
       transform="matrix(0,1,-1,0,0,0)"
       style="fill:#000000;fill-opacity:1"
       id="rect3087-2-4-6-1"
       width="5.8064961"
       height="16.746948"
       x="368.55237"
       y="-334.10422" />
    <rect
       transform="matrix(0,1,-1,0,0,0)"
       style="fill:#000000;fill-opacity:1"
       id="rect3087-2-84-4-7"
       width="5.8064961"
       height="16.746948"
       x="368.55237"
       y="-361.94345" />
    <rect
       transform="matrix(0,1,-1,0,0,0)"
       style="fill:#000000;fill-opacity:1"
       id="rect3087-2-8-3-5"
       width="5.8064961"
       height="16.746948"
       x="368.64645"
       y="-390.09174" />
    <rect
       transform="matrix(0,1,-1,0,0,0)"
       style="fill:#000000;fill-opacity:1"
       id="rect3087-2-4-9-1"
       width="5.8064961"
       height="16.746948"
       x="368.64645"
       y="-416.67987" />
    <rect
       transform="matrix(0,1,-1,0,0,0)"
       style="fill:#000000;fill-opacity:1"
       id="rect3087-2-84-7-7"
       width="5.8064961"
       height="16.746948"
       x="368.64645"
       y="-444.51907" />
    <rect
       transform="matrix(0,1,-1,0,0,0)"
       style="fill:#000000;fill-opacity:1"
       id="rect3087-2-1-6-6"
       width="5.8064961"
       height="16.746948"
       x="368.39569"
       y="-471.68558" />
    <rect
       transform="matrix(0,1,-1,0,0,0)"
       style="fill:#000000;fill-opacity:1"
       id="rect3087-2-8-9-0-5"
       width="5.8064961"
       height="16.746948"
       x="368.45825"
       y="-498.75549" />
    <rect
       transform="matrix(0,1,-1,0,0,0)"
       style="fill:#000000;fill-opacity:1"
       id="rect3087-2-4-6-7-4"
       width="5.8064961"
       height="16.746948"
       x="368.45828"
       y="-525.34363" />
    <rect
       transform="matrix(0,1,-1,0,0,0)"
       style="fill:#000000;fill-opacity:1"
       id="rect3087-2-84-4-0-5"
       width="5.8064961"
       height="16.746948"
       x="368.45825"
       y="-553.18286" />
    <path
       style="fill:#000000;fill-opacity:1"
       d="m 126.90493,582.25814 c -5.37812,-29.89975 -25.16289,-39.85088 -39.471848,-37.65603 -3.844876,0.88151 -1.785701,-3.3683 -0.694755,-3.91571 18.521723,-1.99739 39.641963,10.3703 43.481503,39.9371 -0.68015,3.53103 -1.51082,4.48458 -3.3149,1.63464 z"
       id="path3071-7-7"
       inkscape:connector-curvature="0"
       sodipodi:nodetypes="ccccc" />
    <text
       xml:space="preserve"
       style="font-size:34.76366425px;font-style:normal;font-weight:normal;line-height:125%;letter-spacing:0px;word-spacing:0px;fill:#000000;fill-opacity:1;stroke:none;font-family:Sans"
       x="34.256214"
       y="588.77582"
       id="text3519-2"
       sodipodi:linespacing="125%"><tspan
         style="font-size:36.89617538px"
         sodipodi:role="line"
         id="tspan3521-7"
         x="34.256214"
         y="588.77582">A</tspan></text>
    <path
       sodipodi:nodetypes="ccccccccccc"
       inkscape:connector-curvature="0"
       id="path3102-9"
       d="m 70.186436,588.35604 512.856834,0 L 547.9919,149.29157 249.13289,51.516698 69.955835,588.12544 78.949278,585.35823 254.20611,61.201944 538.30666,155.2872 574.28043,580.97681 75.720862,580.0544 z"
       style="fill:#000000;stroke:#000000;stroke-width:0.92240435px;stroke-linecap:butt;stroke-linejoin:miter;stroke-opacity:1" />
    <path
       style="fill:#000000;fill-opacity:1"
       d="m 530.36434,586.72312 c 6.14948,-33.70805 28.77192,-44.92664 45.13315,-42.45225 4.39634,0.99379 2.04183,-3.79732 0.7944,-4.41444 -21.17822,-2.25181 -45.32767,11.69115 -49.71789,45.02385 0.7777,3.98077 1.72751,5.05579 3.79034,1.84284 z"
       id="path3071-7-9-6"
       inkscape:connector-curvature="0"
       sodipodi:nodetypes="ccccc" />
    <path
       sodipodi:type="arc"
       style="fill:#ff0000;fill-opacity:1"
       id="path3109-08-3-0-5-1-6"
       sodipodi:cx="131.25"
       sodipodi:cy="214.75"
       sodipodi:rx="6.875"
       sodipodi:ry="6.875"
       d="m 138.125,214.75 a 6.875,6.875 0 1 1 -13.75,0 6.875,6.875 0 1 1 13.75,0 z"
       transform="matrix(1.6423535,0,0,1.6423535,-138.91562,229.2038)" />
    <path
       sodipodi:type="arc"
       style="fill:#ff0000;fill-opacity:1"
       id="path3109-08-3-0-5-9-9"
       sodipodi:cx="131.25"
       sodipodi:cy="214.75"
       sodipodi:rx="6.875"
       sodipodi:ry="6.875"
       d="m 138.125,214.75 a 6.875,6.875 0 1 1 -13.75,0 6.875,6.875 0 1 1 13.75,0 z"
       transform="matrix(1.6423535,0,0,1.6423535,-67.890488,17.050792)" />
    <path
       sodipodi:type="arc"
       style="fill:#ff0000;fill-opacity:1"
       id="path3109-08-3-0-5-0-2"
       sodipodi:cx="131.25"
       sodipodi:cy="214.75"
       sodipodi:rx="6.875"
       sodipodi:ry="6.875"
       d="m 138.125,214.75 a 6.875,6.875 0 1 1 -13.75,0 6.875,6.875 0 1 1 13.75,0 z"
       transform="matrix(1.6423535,0,0,1.6423535,36.341206,-295.64428)" />
    <path
       sodipodi:type="arc"
       style="fill:#ff0000;fill-opacity:1"
       id="path3109-08-3-0-5-3-7"
       sodipodi:cx="131.25"
       sodipodi:cy="214.75"
       sodipodi:rx="6.875"
       sodipodi:ry="6.875"
       d="m 138.125,214.75 a 6.875,6.875 0 1 1 -13.75,0 6.875,6.875 0 1 1 13.75,0 z"
       transform="matrix(1.6423535,0,0,1.6423535,325.97618,-200.63663)" />
    <path
       sodipodi:type="arc"
       style="fill:#ff0000;fill-opacity:1"
       id="path3109-08-3-0-5-94-3"
       sodipodi:cx="131.25"
       sodipodi:cy="214.75"
       sodipodi:rx="6.875"
       sodipodi:ry="6.875"
       d="m 138.125,214.75 a 6.875,6.875 0 1 1 -13.75,0 6.875,6.875 0 1 1 13.75,0 z"
       transform="matrix(1.6423535,0,0,1.6423535,364.71717,231.04861)" />
    <path
       sodipodi:type="arc"
       style="fill:#ff0000;fill-opacity:1"
       id="path3109-08-3-0-5-2-7"
       sodipodi:cx="131.25"
       sodipodi:cy="214.75"
       sodipodi:rx="6.875"
       sodipodi:ry="6.875"
       d="m 138.125,214.75 a 6.875,6.875 0 1 1 -13.75,0 6.875,6.875 0 1 1 13.75,0 z"
       transform="matrix(1.6423535,0,0,1.6423535,345.34667,17.973205)" />
    <text
       sodipodi:linespacing="125%"
       id="text3207-3"
       y="47.827084"
       x="212.23674"
       style="font-size:36.89617538px;font-style:normal;font-weight:normal;line-height:125%;letter-spacing:0px;word-spacing:0px;fill:#000000;fill-opacity:1;stroke:none;font-family:Sans"
       xml:space="preserve"><tspan
         y="47.827084"
         x="212.23674"
         id="tspan3209-1"
         sodipodi:role="line">B</tspan></text>
    <text
       sodipodi:linespacing="125%"
       id="text3211-2"
       y="145.60193"
       x="557.21594"
       style="font-size:36.89617538px;font-style:normal;font-weight:normal;line-height:125%;letter-spacing:0px;word-spacing:0px;fill:#000000;fill-opacity:1;stroke:none;font-family:Sans"
       xml:space="preserve"><tspan
         y="145.60193"
         x="557.21594"
         id="tspan3213-6"
         sodipodi:role="line">C</tspan></text>
    <text
       sodipodi:linespacing="125%"
       id="text3219-1"
       y="377.12543"
       x="100.62581"
       style="font-size:36.89617538px;font-style:normal;font-weight:normal;line-height:125%;letter-spacing:0px;word-spacing:0px;fill:#000000;fill-opacity:1;stroke:none;font-family:Sans"
       xml:space="preserve"><tspan
         y="377.12543"
         x="100.62581"
         id="tspan3221-8"
         sodipodi:role="line">X</tspan></text>
    <text
       sodipodi:linespacing="125%"
       id="text3223-2"
       y="381.73746"
       x="582.12091"
       style="font-size:36.89617538px;font-style:normal;font-weight:normal;line-height:125%;letter-spacing:0px;word-spacing:0px;fill:#000000;fill-opacity:1;stroke:none;font-family:Sans"
       xml:space="preserve"><tspan
         y="381.73746"
         x="582.12091"
         id="tspan3225-7"
         sodipodi:role="line">Y</tspan></text>
    <text
       sodipodi:linespacing="125%"
       id="text3227-3"
       y="545.00305"
       x="140.2892"
       style="font-size:36.89617538px;font-style:normal;font-weight:normal;line-height:125%;letter-spacing:0px;word-spacing:0px;fill:#000000;fill-opacity:1;stroke:none;font-family:Sans"
       xml:space="preserve"><tspan
         y="545.00305"
         x="140.2892"
         id="tspan3229-9"
         sodipodi:role="line">α</tspan></text>
    <text
       sodipodi:linespacing="125%"
       id="text3231-6"
       y="545.00305"
       x="516.63019"
       style="font-size:36.89617538px;font-style:normal;font-weight:normal;line-height:125%;letter-spacing:0px;word-spacing:0px;fill:#000000;fill-opacity:1;stroke:none;font-family:Sans"
       xml:space="preserve"><tspan
         y="545.00305"
         x="516.63019"
         id="tspan3233-6"
         sodipodi:role="line">β</tspan></text>
    <path
       inkscape:connector-curvature="0"
       id="path3235-8"
       d="m 339.39376,608.78368 0,-262.23233 4.88152,0 0,262.23233 z"
       style="fill:#000000;stroke:#000000;stroke-width:0.65289521px;stroke-linecap:butt;stroke-linejoin:miter;stroke-opacity:1" />
    <path
       sodipodi:nodetypes="ccccc"
       inkscape:connector-curvature="0"
       id="path3237-1"
       d="m 332.14928,565.75713 23.06011,28.13333 -3.68962,3.68962 -23.75191,-28.13333 z"
       style="fill:#000000;stroke:#000000;stroke-width:0.92240429px;stroke-linecap:butt;stroke-linejoin:miter;stroke-opacity:1" />
    <path
       sodipodi:nodetypes="ccccc"
       inkscape:connector-curvature="0"
       id="path3237-9-7"
       d="m 332.95639,355.67953 23.06011,28.13335 -3.68961,3.68961 -23.75192,-28.13333 z"
       style="fill:#000000;stroke:#000000;stroke-width:0.92240429px;stroke-linecap:butt;stroke-linejoin:miter;stroke-opacity:1" />
    <text
       inkscape:transform-center-y="-5.8303522"
       inkscape:transform-center-x="6.7435026"
       transform="matrix(-0.00748822,-0.99997196,0.99997196,-0.00748822,0,0)"
       sodipodi:linespacing="125%"
       id="text3265-2"
       y="321.31653"
       x="-485.25723"
       style="font-size:31.98804474px;font-style:normal;font-weight:normal;line-height:125%;letter-spacing:0px;word-spacing:0px;fill:#000000;fill-opacity:1;stroke:none;font-family:Sans"
       xml:space="preserve"><tspan
         y="321.31653"
         x="-485.25723"
         id="tspan3267-9"
         sodipodi:role="line">d</tspan></text>
    <path
       inkscape:transform-center-y="41.286049"
       inkscape:transform-center-x="6.1158833"
       sodipodi:nodetypes="cccccccc"
       inkscape:connector-curvature="0"
       id="path3287-8-4"
       d="m 319.20502,485.77057 -0.59009,27.99473 6.99869,0.14753 -9.33416,35.05779 -8.06035,-35.12747 6.39743,-0.048 -1.00926,-27.98276 z"
       style="fill:#000000;stroke:#000000;stroke-width:0.79970109px;stroke-linecap:butt;stroke-linejoin:miter;stroke-opacity:1" />
    <path
       inkscape:transform-center-y="54.970542"
       inkscape:transform-center-x="5.9847952"
       sodipodi:nodetypes="cccc"
       inkscape:connector-curvature="0"
       id="path3289-5-3"
       d="m 322.03602,516.73864 -5.79847,26.63424 -4.19901,-26.7593 z"
       style="fill:#ffffff;stroke:#000000;stroke-width:0.79970109px;stroke-linecap:butt;stroke-linejoin:miter;stroke-opacity:1" />
    <path
       inkscape:transform-center-y="-56.003979"
       inkscape:transform-center-x="7.1129244"
       sodipodi:nodetypes="cccccccc"
       inkscape:connector-curvature="0"
       id="path3287-6-0-6"
       d="m 318.70603,459.18349 -1.00927,-27.98276 6.99569,-0.25233 -9.85813,-34.91407 -7.53338,35.24424 6.39743,-0.048 -0.59009,27.99475 z"
       style="fill:#000000;stroke:#000000;stroke-width:0.79970109px;stroke-linecap:butt;stroke-linejoin:miter;stroke-opacity:1" />
    <path
       inkscape:transform-center-y="-69.651122"
       inkscape:transform-center-x="7.0272758"
       sodipodi:nodetypes="cccc"
       inkscape:connector-curvature="0"
       id="path3289-0-6-6"
       d="m 321.07294,428.17648 -6.1967,-26.54441 -3.79779,26.81918 z"
       style="fill:#ffffff;stroke:#000000;stroke-width:0.79970109px;stroke-linecap:butt;stroke-linejoin:miter;stroke-opacity:1" />
    <rect
       y="-171.78238"
       x="368.67798"
       height="16.746948"
       width="5.8064961"
       id="rect4137-0"
       style="fill:#000000;fill-opacity:1"
       transform="matrix(0,1,-1,0,0,0)" />
    <rect
       y="-198.85229"
       x="368.74057"
       height="16.746948"
       width="5.8064961"
       id="rect4139-4"
       style="fill:#000000;fill-opacity:1"
       transform="matrix(0,1,-1,0,0,0)" />
    <rect
       y="-225.44044"
       x="368.74057"
       height="16.746948"
       width="5.8064961"
       id="rect4141-6"
       style="fill:#000000;fill-opacity:1"
       transform="matrix(0,1,-1,0,0,0)" />
    <rect
       y="-253.27966"
       x="368.74057"
       height="16.746948"
       width="5.8064961"
       id="rect4143-9"
       style="fill:#000000;fill-opacity:1"
       transform="matrix(0,1,-1,0,0,0)" />
    <rect
       y="-280.44614"
       x="368.48978"
       height="16.746948"
       width="5.8064961"
       id="rect4145-0"
       style="fill:#000000;fill-opacity:1"
       transform="matrix(0,1,-1,0,0,0)" />
    <rect
       y="-307.51599"
       x="368.55237"
       height="16.746948"
       width="5.8064961"
       id="rect4147-5"
       style="fill:#000000;fill-opacity:1"
       transform="matrix(0,1,-1,0,0,0)" />
    <rect
       y="-334.10422"
       x="368.5524"
       height="16.746948"
       width="5.8064961"
       id="rect4149-5"
       style="fill:#000000;fill-opacity:1"
       transform="matrix(0,1,-1,0,0,0)" />
    <rect
       y="-361.94342"
       x="368.55237"
       height="16.746948"
       width="5.8064961"
       id="rect4151-6"
       style="fill:#000000;fill-opacity:1"
       transform="matrix(0,1,-1,0,0,0)" />
    <rect
       y="-390.09171"
       x="368.64645"
       height="16.746948"
       width="5.8064961"
       id="rect4153-5"
       style="fill:#000000;fill-opacity:1"
       transform="matrix(0,1,-1,0,0,0)" />
    <rect
       y="-416.67984"
       x="368.64645"
       height="16.746948"
       width="5.8064961"
       id="rect4155-6"
       style="fill:#000000;fill-opacity:1"
       transform="matrix(0,1,-1,0,0,0)" />
    <rect
       y="-444.51904"
       x="368.64645"
       height="16.746948"
       width="5.8064961"
       id="rect4157-4"
       style="fill:#000000;fill-opacity:1"
       transform="matrix(0,1,-1,0,0,0)" />
    <rect
       y="-471.68552"
       x="368.39572"
       height="16.746948"
       width="5.8064961"
       id="rect4159-2"
       style="fill:#000000;fill-opacity:1"
       transform="matrix(0,1,-1,0,0,0)" />
    <rect
       y="-498.75546"
       x="368.45825"
       height="16.746948"
       width="5.8064961"
       id="rect4161-5"
       style="fill:#000000;fill-opacity:1"
       transform="matrix(0,1,-1,0,0,0)" />
    <rect
       y="-525.34357"
       x="368.45828"
       height="16.746948"
       width="5.8064961"
       id="rect4163-6"
       style="fill:#000000;fill-opacity:1"
       transform="matrix(0,1,-1,0,0,0)" />
    <rect
       y="-553.18286"
       x="368.45825"
       height="16.746948"
       width="5.8064961"
       id="rect4165-3"
       style="fill:#000000;fill-opacity:1"
       transform="matrix(0,1,-1,0,0,0)" />
    <path
       sodipodi:nodetypes="ccccc"
       inkscape:connector-curvature="0"
       id="path4167-0"
       d="m 126.90493,582.25813 c -5.37812,-29.89974 -25.16289,-39.85087 -39.471849,-37.65603 -3.844874,0.88152 -1.785704,-3.36829 -0.69475,-3.9157 18.521719,-1.9974 39.641969,10.3703 43.481489,39.93709 -0.68015,3.53103 -1.51082,4.48459 -3.31489,1.63464 z"
       style="fill:#000000;fill-opacity:1" />
    <text
       sodipodi:linespacing="125%"
       id="text4169-8"
       y="588.77582"
       x="34.256199"
       style="font-size:34.76366425px;font-style:normal;font-weight:normal;line-height:125%;letter-spacing:0px;word-spacing:0px;fill:#000000;fill-opacity:1;stroke:none;font-family:Sans"
       xml:space="preserve"><tspan
         y="588.77582"
         x="34.256199"
         id="tspan4171-9"
         sodipodi:role="line"
         style="font-size:36.89617157px">A</tspan></text>
    <path
       style="fill:#000000;stroke:#000000;stroke-width:0.92240435px;stroke-linecap:butt;stroke-linejoin:miter;stroke-opacity:1"
       d="m 70.186438,588.35603 512.856812,0 L 547.99189,149.29156 249.13288,51.516701 69.955837,588.12543 78.94928,585.35821 254.2061,61.201947 l 284.10054,94.085243 35.97377,425.6896 -498.559546,-0.9224 z"
       id="path4173-4"
       inkscape:connector-curvature="0"
       sodipodi:nodetypes="ccccccccccc" />
    <path
       sodipodi:nodetypes="ccccc"
       inkscape:connector-curvature="0"
       id="path4175-8"
       d="m 530.36433,586.72312 c 6.14948,-33.70806 28.77192,-44.92665 45.13315,-42.45225 4.39633,0.99379 2.04182,-3.79732 0.7944,-4.41445 -21.17822,-2.2518 -45.32767,11.69116 -49.71789,45.02385 0.77771,3.98078 1.72751,5.05579 3.79034,1.84285 z"
       style="fill:#000000;fill-opacity:1" />
    <path
       transform="matrix(1.6423535,0,0,1.6423535,-138.91563,229.2038)"
       d="m 138.125,214.75 a 6.875,6.875 0 1 1 -13.75,0 6.875,6.875 0 1 1 13.75,0 z"
       sodipodi:ry="6.875"
       sodipodi:rx="6.875"
       sodipodi:cy="214.75"
       sodipodi:cx="131.25"
       id="path4177-0"
       style="fill:#ff0000;fill-opacity:1"
       sodipodi:type="arc" />
    <path
       transform="matrix(1.6423535,0,0,1.6423535,-67.89049,17.050796)"
       d="m 138.125,214.75 a 6.875,6.875 0 1 1 -13.75,0 6.875,6.875 0 1 1 13.75,0 z"
       sodipodi:ry="6.875"
       sodipodi:rx="6.875"
       sodipodi:cy="214.75"
       sodipodi:cx="131.25"
       id="path4179-4"
       style="fill:#ff0000;fill-opacity:1"
       sodipodi:type="arc" />
    <path
       transform="matrix(1.6423535,0,0,1.6423535,36.341204,-295.64428)"
       d="m 138.125,214.75 a 6.875,6.875 0 1 1 -13.75,0 6.875,6.875 0 1 1 13.75,0 z"
       sodipodi:ry="6.875"
       sodipodi:rx="6.875"
       sodipodi:cy="214.75"
       sodipodi:cx="131.25"
       id="path4181-0"
       style="fill:#ff0000;fill-opacity:1"
       sodipodi:type="arc" />
    <path
       transform="matrix(1.6423535,0,0,1.6423535,325.97617,-200.63663)"
       d="m 138.125,214.75 a 6.875,6.875 0 1 1 -13.75,0 6.875,6.875 0 1 1 13.75,0 z"
       sodipodi:ry="6.875"
       sodipodi:rx="6.875"
       sodipodi:cy="214.75"
       sodipodi:cx="131.25"
       id="path4183-6"
       style="fill:#ff0000;fill-opacity:1"
       sodipodi:type="arc" />
    <path
       transform="matrix(1.6423535,0,0,1.6423535,364.71715,231.04861)"
       d="m 138.125,214.75 a 6.875,6.875 0 1 1 -13.75,0 6.875,6.875 0 1 1 13.75,0 z"
       sodipodi:ry="6.875"
       sodipodi:rx="6.875"
       sodipodi:cy="214.75"
       sodipodi:cx="131.25"
       id="path4185-4"
       style="fill:#ff0000;fill-opacity:1"
       sodipodi:type="arc" />
    <path
       transform="matrix(1.6423535,0,0,1.6423535,345.34666,17.973201)"
       d="m 138.125,214.75 a 6.875,6.875 0 1 1 -13.75,0 6.875,6.875 0 1 1 13.75,0 z"
       sodipodi:ry="6.875"
       sodipodi:rx="6.875"
       sodipodi:cy="214.75"
       sodipodi:cx="131.25"
       id="path4187-7"
       style="fill:#ff0000;fill-opacity:1"
       sodipodi:type="arc" />
    <text
       xml:space="preserve"
       style="font-size:36.89617157px;font-style:normal;font-weight:normal;line-height:125%;letter-spacing:0px;word-spacing:0px;fill:#000000;fill-opacity:1;stroke:none;font-family:Sans"
       x="212.23671"
       y="47.827084"
       id="text4189-0"
       sodipodi:linespacing="125%"><tspan
         sodipodi:role="line"
         id="tspan4191-0"
         x="212.23671"
         y="47.827084">B</tspan></text>
    <text
       xml:space="preserve"
       style="font-size:36.89617157px;font-style:normal;font-weight:normal;line-height:125%;letter-spacing:0px;word-spacing:0px;fill:#000000;fill-opacity:1;stroke:none;font-family:Sans"
       x="557.21594"
       y="145.60194"
       id="text4193-6"
       sodipodi:linespacing="125%"><tspan
         sodipodi:role="line"
         id="tspan4195-7"
         x="557.21594"
         y="145.60194">C</tspan></text>
    <text
       xml:space="preserve"
       style="font-size:36.89617157px;font-style:normal;font-weight:normal;line-height:125%;letter-spacing:0px;word-spacing:0px;fill:#000000;fill-opacity:1;stroke:none;font-family:Sans"
       x="595.95691"
       y="588.35602"
       id="text4197-4"
       sodipodi:linespacing="125%"><tspan
         sodipodi:role="line"
         id="tspan4199-6"
         x="595.95691"
         y="588.35602">D</tspan></text>
    <text
       xml:space="preserve"
       style="font-size:36.89617157px;font-style:normal;font-weight:normal;line-height:125%;letter-spacing:0px;word-spacing:0px;fill:#000000;fill-opacity:1;stroke:none;font-family:Sans"
       x="100.62579"
       y="377.12546"
       id="text4201-1"
       sodipodi:linespacing="125%"><tspan
         sodipodi:role="line"
         id="tspan4203-0"
         x="100.62579"
         y="377.12546">X</tspan></text>
    <text
       xml:space="preserve"
       style="font-size:36.89617157px;font-style:normal;font-weight:normal;line-height:125%;letter-spacing:0px;word-spacing:0px;fill:#000000;fill-opacity:1;stroke:none;font-family:Sans"
       x="582.12085"
       y="381.73746"
       id="text4205-5"
       sodipodi:linespacing="125%"><tspan
         sodipodi:role="line"
         id="tspan4207-3"
         x="582.12085"
         y="381.73746">Y</tspan></text>
    <text
       xml:space="preserve"
       style="font-size:36.89617157px;font-style:normal;font-weight:normal;line-height:125%;letter-spacing:0px;word-spacing:0px;fill:#000000;fill-opacity:1;stroke:none;font-family:Sans"
       x="140.28918"
       y="545.00299"
       id="text4209-7"
       sodipodi:linespacing="125%"><tspan
         sodipodi:role="line"
         id="tspan4211-3"
         x="140.28918"
         y="545.00299">α</tspan></text>
    <text
       xml:space="preserve"
       style="font-size:36.89617157px;font-style:normal;font-weight:normal;line-height:125%;letter-spacing:0px;word-spacing:0px;fill:#000000;fill-opacity:1;stroke:none;font-family:Sans"
       x="516.63019"
       y="545.00299"
       id="text4213-0"
       sodipodi:linespacing="125%"><tspan
         sodipodi:role="line"
         id="tspan4215-2"
         x="516.63019"
         y="545.00299">β</tspan></text>
    <path
       style="fill:#000000;stroke:#000000;stroke-width:0.65289521px;stroke-linecap:butt;stroke-linejoin:miter;stroke-opacity:1"
       d="m 339.39376,608.78368 0,-262.23234 4.88152,0 0,262.23234 z"
       id="path4217-1"
       inkscape:connector-curvature="0" />
    <path
       style="fill:#000000;stroke:#000000;stroke-width:0.92240435px;stroke-linecap:butt;stroke-linejoin:miter;stroke-opacity:1"
       d="m 332.14927,565.75712 23.06011,28.13334 -3.68962,3.68962 -23.75191,-28.13334 z"
       id="path4219-4"
       inkscape:connector-curvature="0"
       sodipodi:nodetypes="ccccc" />
    <path
       style="fill:#000000;stroke:#000000;stroke-width:0.92240435px;stroke-linecap:butt;stroke-linejoin:miter;stroke-opacity:1"
       d="m 332.95638,355.67953 23.06011,28.13334 -3.68961,3.68962 -23.75192,-28.13333 z"
       id="path4221-6"
       inkscape:connector-curvature="0"
       sodipodi:nodetypes="ccccc" />
    <text
       xml:space="preserve"
       style="font-size:31.98804283px;font-style:normal;font-weight:normal;line-height:125%;letter-spacing:0px;word-spacing:0px;fill:#000000;fill-opacity:1;stroke:none;font-family:Sans"
       x="-485.25723"
       y="321.31653"
       id="text4231-0"
       sodipodi:linespacing="125%"
       transform="matrix(-0.00748824,-0.99997196,0.99997196,-0.00748824,0,0)"
       inkscape:transform-center-x="6.7435026"
       inkscape:transform-center-y="-5.8303522"><tspan
         sodipodi:role="line"
         id="tspan4233-1"
         x="-485.25723"
         y="321.31653">d</tspan></text>
    <path
       style="fill:#000000;stroke:#000000;stroke-width:0.79970109px;stroke-linecap:butt;stroke-linejoin:miter;stroke-opacity:1"
       d="m 319.20501,485.77056 -0.59009,27.99474 6.9987,0.14752 -9.33417,35.0578 -8.06035,-35.12748 6.39743,-0.0479 -1.00926,-27.98277 z"
       id="path4251-0"
       inkscape:connector-curvature="0"
       sodipodi:nodetypes="cccccccc"
       inkscape:transform-center-x="6.1158833"
       inkscape:transform-center-y="41.286049" />
    <path
       style="fill:#ffffff;stroke:#000000;stroke-width:0.79970109px;stroke-linecap:butt;stroke-linejoin:miter;stroke-opacity:1"
       d="m 322.03602,516.73864 -5.79848,26.63424 -4.199,-26.75931 z"
       id="path4253-8"
       inkscape:connector-curvature="0"
       sodipodi:nodetypes="cccc"
       inkscape:transform-center-x="5.9847952"
       inkscape:transform-center-y="54.970542" />
    <path
       style="fill:#000000;stroke:#000000;stroke-width:0.79970109px;stroke-linecap:butt;stroke-linejoin:miter;stroke-opacity:1"
       d="m 318.70602,459.18349 -1.00927,-27.98277 6.99569,-0.25232 -9.85813,-34.91408 -7.53338,35.24424 6.39743,-0.0479 -0.59009,27.99474 z"
       id="path4255-9"
       inkscape:connector-curvature="0"
       sodipodi:nodetypes="cccccccc"
       inkscape:transform-center-x="7.1129244"
       inkscape:transform-center-y="-56.003979" />
    <path
       style="fill:#ffffff;stroke:#000000;stroke-width:0.79970109px;stroke-linecap:butt;stroke-linejoin:miter;stroke-opacity:1"
       d="m 321.07293,428.17647 -6.1967,-26.5444 -3.79779,26.81918 z"
       id="path4257-9"
       inkscape:connector-curvature="0"
       sodipodi:nodetypes="cccc"
       inkscape:transform-center-x="7.0272758"
       inkscape:transform-center-y="-69.651122" />
    <text
       xml:space="preserve"
       style="font-size:56px;font-style:normal;font-weight:normal;line-height:125%;letter-spacing:0px;word-spacing:0px;fill:#000000;fill-opacity:1;stroke:none;font-family:Sans"
       x="404.7312"
       y="499.44873"
       id="text4205-5-2"
       sodipodi:linespacing="125%"><tspan
         style="font-size:56px;font-weight:bold;-inkscape-font-specification:Sans Bold"
         sodipodi:role="line"
         id="tspan4207-3-5"
         x="404.7312"
         y="499.44873">S</tspan></text>
  </g>
</svg>
