<?xml version="1.0" encoding="UTF-8" standalone="no"?>
<!-- Created with Inkscape (http://www.inkscape.org/) -->

<svg
   xmlns:dc="http://purl.org/dc/elements/1.1/"
   xmlns:cc="http://creativecommons.org/ns#"
   xmlns:rdf="http://www.w3.org/1999/02/22-rdf-syntax-ns#"
   xmlns:svg="http://www.w3.org/2000/svg"
   xmlns="http://www.w3.org/2000/svg"
   xmlns:sodipodi="http://sodipodi.sourceforge.net/DTD/sodipodi-0.dtd"
   xmlns:inkscape="http://www.inkscape.org/namespaces/inkscape"
   id="svg2"
   version="1.1"
   inkscape:version="0.48.4 r9939"
   width="800"
   height="566"
   sodipodi:docname="lpol.svg">
  <metadata
     id="metadata8">
    <rdf:RDF>
      <cc:Work
         rdf:about="">
        <dc:format>image/svg+xml</dc:format>
        <dc:type
           rdf:resource="http://purl.org/dc/dcmitype/StillImage" />
        <dc:title />
      </cc:Work>
    </rdf:RDF>
  </metadata>
  <defs
     id="defs6" />
  <sodipodi:namedview
     pagecolor="#ffffff"
     bordercolor="#666666"
     borderopacity="1"
     objecttolerance="10"
     gridtolerance="10"
     guidetolerance="10"
     inkscape:pageopacity="0"
     inkscape:pageshadow="2"
     inkscape:window-width="1600"
     inkscape:window-height="851"
     id="namedview4"
     showgrid="false"
     inkscape:zoom="1.1313709"
     inkscape:cx="440.2874"
     inkscape:cy="290.37996"
     inkscape:window-x="-4"
     inkscape:window-y="27"
     inkscape:window-maximized="1"
     inkscape:current-layer="svg2"
     showguides="true"
     inkscape:guide-bbox="true">
    <sodipodi:guide
       orientation="1,0"
       position="541.82057,304.05592"
       id="guide3254" />
    <sodipodi:guide
       orientation="1,0"
       position="574.52426,331.4563"
       id="guide3256" />
    <sodipodi:guide
       orientation="1,0"
       position="254.55844,235.113"
       id="guide3258" />
  </sodipodi:namedview>
  <text
     xml:space="preserve"
     style="font-size:40px;font-style:normal;font-weight:normal;line-height:125%;letter-spacing:0px;word-spacing:0px;fill:#000000;fill-opacity:1;stroke:none;font-family:Sans"
     x="387.14096"
     y="117.87108"
     id="text3166"
     sodipodi:linespacing="125%"><tspan
       sodipodi:role="line"
       id="tspan3168"
       x="387.14096"
       y="117.87108" /></text>
  <flowRoot
     xml:space="preserve"
     id="flowRoot3174"
     style="fill:black;stroke:none;stroke-opacity:1;stroke-width:1px;stroke-linejoin:miter;stroke-linecap:butt;fill-opacity:1;font-family:Sans;font-style:normal;font-weight:normal;font-size:40px;line-height:125%;letter-spacing:0px;word-spacing:0px"><flowRegion
       id="flowRegion3176"><rect
         id="rect3178"
         width="139.65359"
         height="49.497475"
         x="485.25201"
         y="63.070301" /></flowRegion><flowPara
       id="flowPara3180" /></flowRoot>  <path
     inkscape:connector-curvature="0"
     id="path3001"
     d="m 252.78124,432.00116 c 0.055,-1.06582 -0.0312,-13.11804 -0.0312,-72.28672 0,-63.04992 -0.9625,-73.17748 -1.019,-75.15515 -0.0422,-1.47855 -3.3747,0.77421 -10.51566,3.30414 -12.64385,4.47954 -22.79708,1.8487 -29.21534,-7.57009 -3.92984,-5.76703 -4.14765,-9.75806 -0.80132,-14.68262 3.37148,-4.96158 3.89489,-7.79252 2.19506,-11.87233 -4.47205,-10.73355 -2.59,-20.4397 4.97765,-25.67081 4.98863,-3.44839 7.53824,-3.31228 11.87861,0.6341 3.21814,2.92601 6.22339,3.33124 14.60757,1.96967 l 7.89243,-1.2817 0,-18.87185 0,-18.87184 -1.67208,-2.53059 -4.21855,1.17229 c -3.03916,0.84455 -3.01048,-2.48717 -0.90625,-3.78766 0.55,-0.33992 3.96876,-1.74211 3.96876,-2.2566 0,-0.5145 -8.8264,-9.23377 -18.18192,-18.70775 -9.35552,-9.47398 -16.19533,-16.6946 -17.77755,-18.4765 -0.39585,-0.4458 0.38847,-4.3706 4.33024,-1.88566 4.34947,4.7944 27.96506,27.86072 31.02645,30.84378 5.43488,5.74295 5.42875,5.58408 11.6764,0.44551 15.31166,-15.07735 23.55978,-24.0675 29.02657,-30.86509 2.06296,-1.83966 4.73249,-0.39875 4.71666,1.96974 -1.41225,2.33168 -7.43118,9.21918 -16.5,18.43054 -9.06881,9.21133 -16.48875,17.17228 -16.48875,17.69095 0,0.51868 0.42235,1.27064 1,1.56109 6.92035,3.47965 2.04534,4.91072 0.24376,4.26465 l -2.6177,-0.93874 -2.6698,3.01687 0.27187,19.22461 0.27187,19.22461 5,1.44448 c 8.91959,2.57683 15.08342,8.29142 16.39901,16.51864 0.61066,3.81884 -0.51802,4.75131 -3.84627,9.07183 -4.20267,3.24211 -4.88126,4.61568 -1.71438,8.417 1.35124,2.1405 3.53752,4.59993 4.85841,5.46541 1.32088,0.86547 3.24346,3.44049 4.27239,5.72225 1.78844,3.96606 1.57487,4.82835 0.16801,9.55047 -1.68242,5.64705 -6.28323,10.29226 -12.05833,12.48794 -4.05658,1.54231 -9.48378,0.99141 -11.7501,-0.62501 -2.16927,-1.5472 -2.38781,-2.35065 -2.20928,4.19114 0.18453,6.76183 0.38054,23.01322 0.38054,60.80886 0,37.56978 0.53918,67.74874 0.64318,68.92062 0.0162,2.72456 0.23415,13.59084 0.34846,14.95438 -1.1238,0.0264 -4.61556,-0.0569 -6.15859,0.0107 0.18605,-1.53703 0.18155,-13.89217 0.19821,-14.97959 z m 19.51205,-137.03493 c 6.56492,-3.07513 9.43982,-10.19854 9.43982,-13.82111 0,-2.32533 -2.63015,-5.82001 -6.67371,-10.21839 -2.94134,-3.19944 -5.33581,-6.64778 -5.72618,-8.20312 -0.89236,-3.55546 3.18354,-5.94641 5.8849,-8.88985 5.2341,-5.70316 -2.25966,-17.78904 -12.34408,-19.80592 l -5.12404,-1.28998 0,28.01911 c 0,23.82659 0.007,29.75628 1.41483,32.15434 3.22874,5.50049 8.26223,4.33435 13.12846,2.05492 z m -33.82232,-9.21462 c 5.1343,-1.58266 9.51075,-3.4398 14.27903,-5.8294 l -0.44194,-22.53086 c -0.0122,-0.62019 0.10117,-23.44453 0.22266,-24.96155 0.063,-0.78653 -3.5412,-0.31882 -7.46626,0.50685 -8.42874,1.77304 -11.37001,0.21952 -14.96591,-1.04062 -2.02567,-0.70986 -3.49907,-4.01865 -6.18619,-3.6872 -2.54419,0.31383 -6.58573,3.77287 -8.24025,8.10516 -1.63835,4.28995 -2.06291,8.34451 0.0545,15.31561 2.40129,7.90571 1.48813,10.72225 -1.58294,15.08664 -3.08362,4.38221 -2.13918,8.32138 0.31942,11.9697 5.06177,7.51116 14.70612,10.44168 24.00788,7.06567 z m 330.93402,161.16965 c -2.27635,-2.51534 2.02515,-7.04348 2.22001,-10.33532 0.50492,-3.00197 0.0569,-204.21173 -0.21772,-207.22264 2.46956,-5.51973 -2.98762,-8.80039 -0.2285,-11.29741 1.06945,-0.96784 0.59757,-2.9407 0.76562,-4.67061 0.23169,-2.38494 0.8331,-3.51574 2.55555,-3.46483 1.65742,0.049 2.25,1.9923 2.25,3.41667 0,2.05492 -0.47376,4.6006 -0.0979,4.22477 2.67887,5.61984 0.54434,5.46347 -0.11178,11.73617 -0.4219,3.33607 0.22424,203.98439 0.41283,207.04731 2.51586,2.70047 4.401,8.53794 1.96814,10.73964 -2.42729,2.19667 -7.45414,2.10488 -9.51627,-0.17375 z m -324.6686,-24.7125 c -1.33087,-4.03258 -0.76479,-6.45876 1.50698,-6.45876 1.73163,0 3.50663,3.82932 3.50663,7.5651 0,3.98055 -3.59672,3.18687 -5.01361,-1.10634 z m 16.30611,-0.60288 c 0.57608,-4.29494 2.05643,-6.04295 4.36682,-5.15637 2.95348,1.13336 0.36165,9.30049 -2.9515,9.30049 -1.73386,0 -1.90424,-0.49889 -1.41532,-4.14412 z m -22.24057,-13.73051 c -1.50637,-3.6367 -1.06347,-6.49947 1.06907,-6.91016 1.81609,-0.34974 4.26121,4.56163 3.70607,7.44421 -0.58556,3.04059 -3.42606,2.72291 -4.77514,-0.53405 z m 27.94807,0.42168 c 0,-3.69255 2.09475,-7.54705 4.1015,-7.54705 2.71851,0 2.99729,1.33891 1.22056,5.86203 -1.8827,4.7929 -5.32206,5.88184 -5.32206,1.68502 z m -33.54667,-15.63731 c -1.75977,-3.40301 -1.34001,-5.90974 0.98961,-5.90974 1.8291,0 4.91397,5.62752 4.1608,7.59026 -0.91905,2.39499 -3.47398,1.56135 -5.15041,-1.68052 z m 38.92976,1.64621 c -0.73833,-1.92406 1.30946,-7.22399 3.04915,-7.89157 0.68702,-0.26364 1.83693,-0.11606 2.55536,0.32795 1.06294,0.65694 1.0207,1.52441 -0.22674,4.65748 -1.62511,4.0816 -4.35964,5.55934 -5.37777,2.90614 z m -43.75163,-14.74386 c -0.82281,-1.27165 -1.78795,-3.5005 -2.14476,-4.953 -1.21238,-4.9353 3.45759,-4.82202 5.5103,0.13367 2.22612,5.37432 -0.48993,9.2636 -3.36554,4.81933 z M 277.75,378.70034 c 0,-2.95683 2.90878,-8.14633 4.30866,-7.687 1.62597,0.53351 2.05981,5.17966 0.71781,7.68721 -1.46267,2.73301 -5.02647,2.73287 -5.02647,-2.1e-4 z m -55.99709,-15.44268 c -1.30987,-3.44522 -1.2733,-6.22251 0.093,-7.06697 1.74642,-1.07934 4.06748,2.01017 4.24296,5.64772 0.21005,4.35416 -2.84053,5.35267 -4.33601,1.41925 z m 62.46196,1.4355 c -0.78,-1.26206 0.2738,-5.92336 1.73797,-7.68757 1.91588,-2.30849 3.79716,-1.41167 3.79716,1.81015 0,5.35414 -3.53722,9.11011 -5.53513,5.87742 z m -67.13559,-14.71849 c -1.48885,-0.94707 -2.72208,-5.75865 -1.97498,-7.70558 0.89676,-2.33691 3.43871,-0.67631 4.66843,3.04979 1.47933,4.48242 0.28351,6.54946 -2.69345,4.65579 z m 73.15564,-0.24907 c -1.69979,-2.75032 2.09687,-9.97013 4.47128,-8.50267 1.87777,1.16052 1.22788,7.35818 -0.89046,8.49189 -2.40623,1.28777 -2.79088,1.28893 -3.58082,0.0108 z m -79.36104,-14.89904 c -0.65711,-0.40611 -1.46268,-2.38948 -1.79015,-4.40748 -0.52703,-3.24765 -0.35471,-3.66908 1.50024,-3.66908 2.25756,0 4.16603,2.66949 4.16603,5.82727 0,2.18817 -2.0501,3.37783 -3.87612,2.24929 z m 84.42961,-0.99001 c -0.84911,-1.3739 1.96753,-6.68877 3.94738,-7.44851 2.0888,-0.80155 3.0535,1.88037 1.8809,5.22897 -0.94749,2.70572 -4.65516,4.11769 -5.82828,2.21954 z m -89.94282,-14.40523 c -0.87105,-0.64973 -1.87104,-2.64382 -2.2222,-4.43132 -0.5574,-2.83734 -0.37192,-3.25 1.46085,-3.25 1.92814,0 5.15068,4.28157 5.15068,6.84335 0,1.57616 -2.70687,2.09293 -4.38933,0.83797 z m 96.48222,-0.0694 c -1.19325,-1.43777 0.25037,-6.32264 2.29607,-7.7694 3.21508,-2.27376 4.78718,3.0333 2.05434,6.93497 -1.80578,2.57811 -2.75257,2.75971 -4.35041,0.83443 z M 198.82405,304.33923 c -0.64396,-0.77592 -1.43293,-3.02592 -1.75328,-5 -0.5132,-3.16246 -0.33328,-3.58923 1.5132,-3.58923 2.51446,0 4.16603,2.74901 4.16603,6.93426 0,3.30598 -1.89334,4.10411 -3.92595,1.65497 z m 109.26602,-0.14541 c -1.08289,-2.82196 1.04016,-7.91693 3.4433,-8.26337 1.84462,-0.26592 2.21663,0.15826 2.21663,2.52749 0,2.98098 -2.41689,7.29206 -4.08809,7.29206 -0.53607,0 -1.2434,-0.70028 -1.57184,-1.55618 z m 4.96138,-15.10064 c -0.90598,-2.36093 1.86237,-6.78508 4.48197,-7.16273 2.90563,-0.41889 2.97557,2.58493 0.144,6.18469 -2.39112,3.03981 -3.72646,3.32214 -4.62597,0.97804 z m -121.29401,-2.32522 c -1.37433,-3.31793 -0.79077,-6.01796 1.30066,-6.01796 1.54721,0 3.6919,4.09375 3.6919,7.04705 0,3.14685 -3.56741,2.41152 -4.99256,-1.02909 z m -4.43451,-12.58789 c -1.87206,-1.87206 -3.02206,-5.89435 -2.10806,-7.37323 1.27328,-2.06021 3.58926,-1.01118 5.19318,2.35227 2.48617,5.21356 0.43908,8.54516 -3.08512,5.02096 z m 131.83643,0.19433 c -0.82331,-2.14552 1.46474,-8.6244 3.04575,-8.6244 2.80702,0 3.5403,2.49921 1.76106,6.00214 -1.94116,3.82171 -3.93016,4.90677 -4.80681,2.62226 z M 181.19593,258.30782 c -1.75921,-2.68488 -1.62485,-6.67771 0.24541,-7.29327 1.39967,-0.46068 4.30866,4.72838 4.30866,7.68579 0,2.80926 -2.6032,2.58489 -4.55407,-0.39252 z m 144.5939,0.99017 c -1.95323,-2.3535 0.64299,-8.54799 3.58261,-8.54799 1.61356,0 1.81484,3.71967 0.40231,7.4349 -1.10475,2.90573 -2.23513,3.22147 -3.98492,1.11309 z M 174.75291,243.25766 c -1.30987,-3.44522 -1.2733,-6.22251 0.093,-7.06697 1.74642,-1.07934 4.06748,2.01017 4.24296,5.64772 0.21005,4.35416 -2.84053,5.35267 -4.33601,1.41925 z m 156.61401,0.93644 c -0.98261,-2.56064 2.06393,-8.65627 4.11421,-8.23187 2.26392,0.46862 2.05738,5.25899 -0.341,7.90918 -2.06869,2.28587 -2.98964,2.36463 -3.77321,0.32269 z m -158.7263,-20.24192 c -0.825,-0.53264 2.17501,4.80592 -0.62499,5.57875 -1.70625,0.61701 -3.98609,-3.70281 -4.00728,-4.39031 -0.0212,-0.6875 -1.1941,-0.89161 -1.84374,-2.87245 -1.30207,-3.97013 -0.93121,-7.9917 2.93436,-9.05587 1.73307,0.36316 1.54567,2.19097 3.40301,2.15209 2.32894,-0.0488 7.46653,-3.85075 8.287,-1.56692 1.31408,3.65782 -2.78754,4.2566 -6.36396,5.15423 -7.22242,5.33697 -0.81351,0.43564 -1.7844,5.00044 z m 166.30903,-0.91611 c 0.54162,-2.88707 0.5181,-2.88792 -2.1799,-3.9063 -3.49605,-1.31961 -9.96301,-3.09374 -7.11336,-5.94339 1.35065,-1.35065 5.96764,1.37445 8.51214,2.14713 3.74126,2.0864 3.98035,1.32368 5.55439,3.75546 0,3.01968 0.66554,2.75391 -1.39621,7.04627 -1.79143,4.52331 -2.89226,5.62065 -4.53729,5.48905 -2.10801,-1.138 -0.912,-4.86793 1.16023,-8.58822 z m -151.53298,-9.95274 c -1.57219,-1.57218 -0.4218,-3.53769 2.87735,-4.91617 3.93657,-1.6448 5.45598,-1.21482 5.45598,1.54403 0,2.35101 -6.65961,5.04587 -8.33333,3.37214 z m 130.34219,-0.62319 c -3.71836,-1.88128 -3.88251,-4.71014 -0.27331,-4.71014 3.75313,0 6.78046,2.21291 5.95831,4.35539 -0.75241,1.96077 -2.31765,2.05844 -5.685,0.35475 z m -115.70272,-6.35475 c -0.7018,-1.82884 1.77647,-4.08635 5.51708,-5.0256 5.18185,-1.30116 5.134,3.79227 -0.0526,5.60033 -4.09039,1.42592 -4.72225,1.35946 -5.46446,-0.57473 z M 302.5,206.59923 c -1.96113,-0.72448 -2.75,-1.70914 -2.75,-3.43256 0,-2.81466 0.79455,-2.94718 5.60908,-0.93554 2.46365,1.02938 3.44161,2.01714 3.20639,3.23852 -0.40901,2.12382 -2.38031,2.49094 -6.06547,1.12958 z m 269.6724,-5.19085 c -0.31435,-0.81919 -0.42549,-2.76495 -0.24697,-4.32391 0.2381,-2.07936 0.37754,-3.02378 2.08898,-3.08392 1.9911,-0.07 1.97671,3.02567 2,4.14762 0.066,3.17675 -0.23108,4.1731 -1.51743,4.41711 -0.96417,0.18289 -2.01023,-0.33771 -2.32458,-1.1569 z m -355.08657,-1.2256 c -0.8287,-2.15955 0.68345,-3.39937 5.00048,-4.09993 3.26905,-0.53049 3.66369,-0.36234 3.66369,1.56106 0,3.45301 -7.47306,5.64285 -8.66417,2.53887 z M 287,200.71884 c -1.29854,-0.52195 -2.25,-1.76376 -2.25,-2.93662 0,-1.56063 0.65182,-2.03222 2.80887,-2.03222 3.68888,0 6.70091,2.22916 5.88499,4.35539 -0.69069,1.79993 -2.95562,2.01555 -6.44386,0.61345 z m -55.80931,-6.0648 c -0.97968,-1.58516 1.58146,-3.75847 5.3073,-4.50364 2.53501,-0.507 3.36562,-0.26792 3.89909,1.12229 0.44067,1.14836 0.0292,2.24082 -1.17573,3.12192 -2.22856,1.62956 -7.08687,1.78651 -8.03066,0.25943 z m 39.8237,-0.43141 c -2.49282,-1.74603 -2.00784,-4.47263 0.79555,-4.47263 3.19348,0 6.94006,2.24604 6.94006,4.16052 0,2.3313 -4.58849,2.51644 -7.73561,0.31211 z m 303.4681,-7.87035 c -3.79078,0.97535 -3.31934,-11.40079 0.0444,-9.56997 3.16962,-0.49502 2.87776,10.44645 -0.0444,9.56997 z m -0.2284,-15.69867 c -4.27123,0.94936 -1.91101,-14.48147 0.28015,-18.47293 1.17679,3.46124 5.00474,18.91471 -0.28015,18.47293 z"
     style="fill:#000000"
     sodipodi:nodetypes="ssssssssssccccssssscccccssssccccssccsssssssccccscssscsssscsssssssssscssccssssccccssssssssssssssssssssssssssscsscsscssccsscsscsscssccsssssssssssssssssssssssssssssssssssssssssssssscsscsscssccsssssscsscssccsccsccccccsscsscssscsssssssssssssssssssssssssssssssscccccc" />
  <path
     style="fill:#000000;fill-opacity:1"
     d="m 253.80431,162.26359 -0.0447,-17.64228 c 1.42232,0.0765 0.70912,0.003 2.62495,-1.9e-4 0.0184,0.82446 -0.14911,17.64209 -0.1314,18.00782 -0.15968,15.23043 0.0655,19.24099 -0.15013,19.41406 -0.32432,0.11174 -2.03285,0.0609 -2.48832,0.0424 0.0632,-0.36185 0.2162,-19.19759 0.1896,-19.82181 z"
     id="path3026"
     inkscape:connector-curvature="0"
     sodipodi:nodetypes="ccccccc" />
  <path
     style="fill:#000000;fill-opacity:1"
     d="m 259.43911,162.28756 -0.0447,-17.64228 c 1.42232,0.0765 0.70912,0.003 2.62495,-1.9e-4 0.0184,0.82446 -0.14911,17.64209 -0.1314,18.00782 -0.15968,15.23043 0.0655,19.24099 -0.15013,19.41406 -0.32432,0.11174 -2.03285,0.0609 -2.48832,0.0424 0.0632,-0.36185 0.2162,-19.19759 0.1896,-19.82181 z"
     id="path3026-0"
     inkscape:connector-curvature="0"
     sodipodi:nodetypes="ccccccc" />
  <path
     style="fill:#000000;fill-opacity:1"
     d="m 265.51581,158.08281 -0.0447,-13.3271 c 1.42232,0.0578 0.70912,0.002 2.62495,-1.4e-4 0.0184,0.6228 -0.14911,13.32695 -0.1314,13.60322 -0.15968,11.50517 0.0655,14.53477 -0.15013,14.66551 -0.32432,0.0844 -2.03285,0.046 -2.48832,0.032 0.0632,-0.27334 0.2162,-14.50198 0.1896,-14.97352 z"
     id="path3026-9"
     inkscape:connector-curvature="0"
     sodipodi:nodetypes="ccccccc" />
  <path
     style="fill:#000000;fill-opacity:1"
     d="m 271.92397,155.47677 -0.0447,-10.83156 c 1.42232,0.047 0.70912,0.002 2.62495,-1.2e-4 0.0184,0.50618 -0.14911,10.83145 -0.1314,11.05599 -0.15968,9.3508 0.0655,11.8131 -0.15013,11.91936 -0.32432,0.0686 -2.03285,0.0374 -2.48832,0.026 0.0632,-0.22216 0.2162,-11.78646 0.1896,-12.1697 z"
     id="path3026-1"
     inkscape:connector-curvature="0"
     sodipodi:nodetypes="ccccccc" />
  <path
     style="fill:#000000;fill-opacity:1"
     d="m 278.11115,152.36383 -0.0447,-7.60817 c 1.42232,0.033 0.70912,0.001 2.62495,-8e-5 0.0184,0.35555 -0.14911,7.60809 -0.1314,7.76581 -0.15968,6.56807 0.0655,8.29761 -0.15013,8.37225 -0.32432,0.0482 -2.03285,0.0263 -2.48832,0.0183 0.0632,-0.15605 0.2162,-8.27889 0.1896,-8.54809 z"
     id="path3026-3"
     inkscape:connector-curvature="0"
     sodipodi:nodetypes="ccccccc" />
  <path
     style="fill:#000000;fill-opacity:1"
     d="m 284.40881,149.07541 -0.0447,-4.54075 c 1.42232,0.0197 0.70912,7.7e-4 2.62495,-5e-5 0.0184,0.2122 -0.14911,4.5407 -0.1314,4.63483 -0.15968,3.91999 0.0655,4.95223 -0.15013,4.99677 -0.32432,0.0288 -2.03285,0.0157 -2.48832,0.0109 0.0632,-0.0931 0.2162,-4.94105 0.1896,-5.10171 z"
     id="path3026-8"
     inkscape:connector-curvature="0"
     sodipodi:nodetypes="ccccccc" />
  <path
     style="fill:#000000;fill-opacity:1"
     d="m 247.94862,162.17708 -0.0447,-17.64228 c 1.42232,0.0765 0.70912,0.003 2.62495,-1.9e-4 0.0184,0.82446 -0.14911,17.64209 -0.1314,18.00782 -0.15968,15.23043 0.0655,19.24099 -0.15013,19.41406 -0.32432,0.11174 -2.03285,0.0609 -2.48832,0.0424 0.0632,-0.36185 0.2162,-19.19759 0.1896,-19.82181 z"
     id="path3026-2"
     inkscape:connector-curvature="0"
     sodipodi:nodetypes="ccccccc" />
  <path
     style="fill:#000000;fill-opacity:1"
     d="m 241.87192,158.22578 -0.0447,-13.69102 c 1.42232,0.0594 0.70912,0.002 2.62495,-1.5e-4 0.0184,0.63981 -0.14911,13.69088 -0.1314,13.9747 -0.15968,11.81934 0.0655,14.93168 -0.15013,15.06598 -0.32432,0.0867 -2.03285,0.0473 -2.48832,0.0329 0.0632,-0.28081 0.2162,-14.898 0.1896,-15.38242 z"
     id="path3026-4"
     inkscape:connector-curvature="0"
     sodipodi:nodetypes="ccccccc" />
  <path
     style="fill:#000000;fill-opacity:1"
     d="m 235.57426,155.40526 -0.0447,-11.09151 c 1.42232,0.0481 0.70912,0.002 2.62495,-1.2e-4 0.0184,0.51833 -0.14911,11.0914 -0.1314,11.32133 -0.15968,9.57521 0.0655,12.0966 -0.15013,12.20541 -0.32432,0.0702 -2.03285,0.0383 -2.48832,0.0267 0.0632,-0.22749 0.2162,-12.06933 0.1896,-12.46177 z"
     id="path3026-6"
     inkscape:connector-curvature="0"
     sodipodi:nodetypes="ccccccc" />
  <path
     style="fill:#000000;fill-opacity:1"
     d="m 229.49756,152.59127 -0.0447,-8.38803 c 1.42232,0.0364 0.70912,0.001 2.62495,-9e-5 0.0184,0.39199 -0.14911,8.38793 -0.1314,8.56182 -0.15968,7.24131 0.0655,9.14813 -0.15013,9.23042 -0.32432,0.0531 -2.03285,0.029 -2.48832,0.0202 0.0632,-0.17204 0.2162,-9.1275 0.1896,-9.42428 z"
     id="path3026-23"
     inkscape:connector-curvature="0"
     sodipodi:nodetypes="ccccccc" />
  <path
     style="fill:#000000;fill-opacity:1"
     d="m 222.75794,148.9909 -0.0447,-5.00867 c 1.42232,0.0217 0.70912,8.6e-4 2.62495,-5e-5 0.0184,0.23407 -0.14911,5.00861 -0.1314,5.11244 -0.15968,4.32393 0.0655,5.46254 -0.15013,5.51167 -0.32432,0.0317 -2.03285,0.0173 -2.48832,0.012 0.0632,-0.10273 0.2162,-5.45022 0.1896,-5.62743 z"
     id="path3026-66"
     inkscape:connector-curvature="0"
     sodipodi:nodetypes="ccccccc" />
  <path
     sodipodi:type="arc"
     style="fill:#000000;fill-opacity:1"
     id="path3109"
     sodipodi:cx="131.25"
     sodipodi:cy="214.75"
     sodipodi:rx="6.875"
     sodipodi:ry="6.875"
     d="m 138.125,214.75 a 6.875,6.875 0 1 1 -13.75,0 6.875,6.875 0 1 1 13.75,0 z"
     transform="translate(37.5,4.375)" />
  <path
     style="fill:#000000;stroke:#000000;stroke-width:1px;stroke-linecap:butt;stroke-linejoin:miter;stroke-opacity:1"
     d="m 182.34375,235.92187 -5,-11.95312 13.67188,-5.46875 1.25,3.125 -10.54688,4.14062 3.67188,8.98438 z"
     id="path3111"
     inkscape:connector-curvature="0" />
  <path
     style="fill:#000000;fill-opacity:1"
     d="m 329.17533,235.32419 c 0.0641,-0.15802 1.26277,-3.02606 2.6636,-6.37342 1.40082,-3.34736 2.53299,-6.10008 2.51592,-6.11715 -0.0613,-0.0613 -14.45431,-5.80063 -14.48066,-5.77427 -0.0573,0.0573 -1.58066,3.90566 -1.55586,3.93046 0.0144,0.0144 2.36062,0.94204 5.21374,2.06134 2.85313,1.11931 5.20932,2.05916 5.236,2.08855 0.0267,0.0294 -0.77151,2.05603 -1.77373,4.50366 -1.00223,2.44763 -1.81044,4.46201 -1.79604,4.47642 0.0257,0.0257 3.0087,1.1845 3.57364,1.38829 l 0.28676,0.10343 0.11663,-0.28731 0,0 z"
     id="path3113-6"
     inkscape:connector-curvature="0" />
  <path
     sodipodi:type="arc"
     style="fill:#000000;fill-opacity:1"
     id="path3109-5"
     sodipodi:cx="131.25"
     sodipodi:cy="214.75"
     sodipodi:rx="6.875"
     sodipodi:ry="6.875"
     d="m 138.125,214.75 a 6.875,6.875 0 1 1 -13.75,0 6.875,6.875 0 1 1 13.75,0 z"
     transform="translate(443.27426,227.50631)" />
  <path
     sodipodi:type="arc"
     style="fill:#ff0000;fill-opacity:1"
     id="path3109-3"
     sodipodi:cx="131.25"
     sodipodi:cy="214.75"
     sodipodi:rx="6.875"
     sodipodi:ry="6.875"
     d="m 138.125,214.75 a 6.875,6.875 0 1 1 -13.75,0 6.875,6.875 0 1 1 13.75,0 z"
     transform="translate(442.78101,8.3032107)" />
  <path
     sodipodi:type="arc"
     style="fill:#ffffff;fill-opacity:1"
     id="path3109-6"
     sodipodi:cx="131.25"
     sodipodi:cy="214.75"
     sodipodi:rx="6.875"
     sodipodi:ry="6.875"
     d="m 138.125,214.75 a 6.875,6.875 0 1 1 -13.75,0 6.875,6.875 0 1 1 13.75,0 z"
     transform="matrix(0.67613636,0,0,0.67613636,79.96804,73.84659)" />
  <path
     sodipodi:type="arc"
     style="fill:#000000;fill-opacity:1"
     id="path3109-62"
     sodipodi:cx="131.25"
     sodipodi:cy="214.75"
     sodipodi:rx="6.875"
     sodipodi:ry="6.875"
     d="m 138.125,214.75 a 6.875,6.875 0 1 1 -13.75,0 6.875,6.875 0 1 1 13.75,0 z"
     transform="translate(210.09475,5.4305889)" />
  <path
     sodipodi:type="arc"
     style="fill:#ffffff;fill-opacity:1"
     id="path3109-6-9"
     sodipodi:cx="131.25"
     sodipodi:cy="214.75"
     sodipodi:rx="6.875"
     sodipodi:ry="6.875"
     d="m 138.125,214.75 a 6.875,6.875 0 1 1 -13.75,0 6.875,6.875 0 1 1 13.75,0 z"
     transform="matrix(0.67613636,0,0,0.67613636,252.72852,75.012664)" />
  <path
     sodipodi:type="arc"
     style="fill:#ff0000;fill-opacity:1"
     id="path3109-08-3"
     sodipodi:cx="131.25"
     sodipodi:cy="214.75"
     sodipodi:rx="6.875"
     sodipodi:ry="6.875"
     d="m 138.125,214.75 a 6.875,6.875 0 1 1 -13.75,0 6.875,6.875 0 1 1 13.75,0 z"
     transform="translate(124.0625,-29.375001)" />
  <path
     style="fill:#000000;stroke:#000000;stroke-width:1px;stroke-linecap:butt;stroke-linejoin:miter;stroke-opacity:1"
     d="m 250.24951,432.75456 c -0.50999,0.80568 1.39817,3.86615 2.98311,7.84447 1.39995,-1.72453 3.03109,-0.41612 3.09359,-2.54116 -2.7117,-2.11257 -3.78112,-7.93849 -6.0767,-5.30331 z"
     id="path3316"
     inkscape:connector-curvature="0"
     sodipodi:nodetypes="cccc" />
  <path
     style="fill:#000000;stroke:#000000;stroke-width:1px;stroke-linecap:butt;stroke-linejoin:miter;stroke-opacity:1"
     d="m 260.30368,432.08567 c 1.72535,0.91616 -0.18282,3.97663 -2.32019,8.39689 -1.39995,-1.72453 -3.03109,-0.41612 -3.09359,-2.54116 2.7117,-2.11257 4.55452,-6.83365 5.41378,-5.85573 z"
     id="path3316-2"
     inkscape:connector-curvature="0"
     sodipodi:nodetypes="cccc" />
  <path
     sodipodi:type="arc"
     style="fill:#000000;fill-opacity:1"
     id="path3109-08-4"
     sodipodi:cx="131.25"
     sodipodi:cy="214.75"
     sodipodi:rx="6.875"
     sodipodi:ry="6.875"
     d="m 138.125,214.75 a 6.875,6.875 0 1 1 -13.75,0 6.875,6.875 0 1 1 13.75,0 z"
     transform="translate(124.63427,231.59427)" />
  <path
     sodipodi:type="arc"
     style="fill:#000000;fill-opacity:1"
     id="path3109-62-4"
     sodipodi:cx="131.25"
     sodipodi:cy="214.75"
     sodipodi:rx="6.875"
     sodipodi:ry="6.875"
     d="m 138.125,214.75 a 6.875,6.875 0 1 1 -13.75,0 6.875,6.875 0 1 1 13.75,0 z"
     transform="translate(442.73437,66.015625)" />
  <path
     sodipodi:type="arc"
     style="fill:#ffffff;fill-opacity:1"
     id="path3109-6-9-4"
     sodipodi:cx="131.25"
     sodipodi:cy="214.75"
     sodipodi:rx="6.875"
     sodipodi:ry="6.875"
     d="m 138.125,214.75 a 6.875,6.875 0 1 1 -13.75,0 6.875,6.875 0 1 1 13.75,0 z"
     transform="matrix(0.67613636,0,0,0.67613636,485.36814,135.59771)" />
  <path
     sodipodi:type="arc"
     style="fill:#000000;fill-opacity:1"
     id="path3109-62-4-5"
     sodipodi:cx="131.25"
     sodipodi:cy="214.75"
     sodipodi:rx="6.875"
     sodipodi:ry="6.875"
     d="m 138.125,214.75 a 6.875,6.875 0 1 1 -13.75,0 6.875,6.875 0 1 1 13.75,0 z"
     transform="translate(443.05329,-58.540477)" />
  <path
     sodipodi:type="arc"
     style="fill:#ffffff;fill-opacity:1"
     id="path3109-6-9-4-6"
     sodipodi:cx="131.25"
     sodipodi:cy="214.75"
     sodipodi:rx="6.875"
     sodipodi:ry="6.875"
     d="m 138.125,214.75 a 6.875,6.875 0 1 1 -13.75,0 6.875,6.875 0 1 1 13.75,0 z"
     transform="matrix(0.67613636,0,0,0.67613636,485.68706,11.041613)" />
  <path
     sodipodi:type="arc"
     style="fill:#000000;fill-opacity:1"
     id="path3109-62-4-6"
     sodipodi:cx="131.25"
     sodipodi:cy="214.75"
     sodipodi:rx="6.875"
     sodipodi:ry="6.875"
     d="m 138.125,214.75 a 6.875,6.875 0 1 1 -13.75,0 6.875,6.875 0 1 1 13.75,0 z"
     transform="matrix(3.1052497,0,0,3.1052497,-89.400637,-491.38047)" />
  <path
     sodipodi:type="arc"
     style="fill:#ffffff;fill-opacity:1"
     id="path3109-6-9-4-1"
     sodipodi:cx="131.25"
     sodipodi:cy="214.75"
     sodipodi:rx="6.875"
     sodipodi:ry="6.875"
     d="m 138.125,214.75 a 6.875,6.875 0 1 1 -13.75,0 6.875,6.875 0 1 1 13.75,0 z"
     transform="matrix(2.6364375,0,0,2.6364375,-27.885811,-390.60254)" />
  <path
     sodipodi:type="arc"
     style="fill:#000000;fill-opacity:1"
     id="path3109-62-4-6-9"
     sodipodi:cx="131.25"
     sodipodi:cy="214.75"
     sodipodi:rx="6.875"
     sodipodi:ry="6.875"
     d="m 138.125,214.75 a 6.875,6.875 0 1 1 -13.75,0 6.875,6.875 0 1 1 13.75,0 z"
     transform="matrix(3.1052497,0,0,3.1052497,-217.86053,-492.0813)" />
  <path
     sodipodi:type="arc"
     style="fill:#ffffff;fill-opacity:1"
     id="path3109-6-9-4-1-2"
     sodipodi:cx="131.25"
     sodipodi:cy="214.75"
     sodipodi:rx="6.875"
     sodipodi:ry="6.875"
     d="m 138.125,214.75 a 6.875,6.875 0 1 1 -13.75,0 6.875,6.875 0 1 1 13.75,0 z"
     transform="matrix(2.6364375,0,0,2.6364375,-156.34571,-391.30337)" />
  <path
     sodipodi:type="arc"
     style="fill:#000000;fill-opacity:1"
     id="path3109-62-4-6-1"
     sodipodi:cx="131.25"
     sodipodi:cy="214.75"
     sodipodi:rx="6.875"
     sodipodi:ry="6.875"
     d="m 138.125,214.75 a 6.875,6.875 0 1 1 -13.75,0 6.875,6.875 0 1 1 13.75,0 z"
     transform="matrix(3.1052497,0,0,3.1052497,196.49848,-476.78987)" />
  <path
     sodipodi:type="arc"
     style="fill:#ffffff;fill-opacity:1"
     id="path3109-6-9-4-1-4"
     sodipodi:cx="131.25"
     sodipodi:cy="214.75"
     sodipodi:rx="6.875"
     sodipodi:ry="6.875"
     d="m 138.125,214.75 a 6.875,6.875 0 1 1 -13.75,0 6.875,6.875 0 1 1 13.75,0 z"
     transform="matrix(2.6364375,0,0,2.6364375,258.0133,-376.01194)" />
  <path
     sodipodi:type="arc"
     style="fill:#000000;fill-opacity:1"
     id="path3109-62-4-6-9-1"
     sodipodi:cx="131.25"
     sodipodi:cy="214.75"
     sodipodi:rx="6.875"
     sodipodi:ry="6.875"
     d="m 138.125,214.75 a 6.875,6.875 0 1 1 -13.75,0 6.875,6.875 0 1 1 13.75,0 z"
     transform="matrix(3.1052497,0,0,3.1052497,197.12348,-416.16487)" />
  <path
     sodipodi:type="arc"
     style="fill:#ffffff;fill-opacity:1"
     id="path3109-6-9-4-1-2-0"
     sodipodi:cx="131.25"
     sodipodi:cy="214.75"
     sodipodi:rx="6.875"
     sodipodi:ry="6.875"
     d="m 138.125,214.75 a 6.875,6.875 0 1 1 -13.75,0 6.875,6.875 0 1 1 13.75,0 z"
     transform="matrix(2.6364375,0,0,2.6364375,258.6383,-315.38694)" />
  <text
     xml:space="preserve"
     style="font-size:40px;font-style:normal;font-weight:normal;line-height:125%;letter-spacing:0px;word-spacing:0px;fill:#000000;fill-opacity:1;stroke:none;font-family:Sans"
     x="587.79651"
     y="263.79141"
     id="text3081-0"
     sodipodi:linespacing="125%"><tspan
       sodipodi:role="line"
       id="tspan3083-2"
       x="587.79651"
       y="263.79141">+</tspan></text>
  <text
     xml:space="preserve"
     style="font-size:40px;font-style:normal;font-weight:normal;line-height:125%;letter-spacing:0px;word-spacing:0px;fill:#000000;fill-opacity:1;stroke:none;font-family:Sans"
     x="227.15805"
     y="116.9872"
     id="text3154"
     sodipodi:linespacing="125%"><tspan
       sodipodi:role="line"
       id="tspan3156"
       x="227.15805"
       y="116.9872"
       style="font-size:24px">DM1</tspan></text>
  <text
     xml:space="preserve"
     style="font-size:40px;font-style:normal;font-weight:normal;line-height:125%;letter-spacing:0px;word-spacing:0px;fill:#000000;fill-opacity:1;stroke:none;font-family:Sans"
     x="547.12384"
     y="118.75496"
     id="text3158"
     sodipodi:linespacing="125%"><tspan
       sodipodi:role="line"
       id="tspan3160"
       x="547.12384"
       y="118.75496"
       style="font-size:24px">DM2</tspan></text>
  <text
     xml:space="preserve"
     style="font-size:40px;font-style:normal;font-weight:normal;line-height:125%;letter-spacing:0px;word-spacing:0px;fill:#000000;fill-opacity:1;stroke:none;font-family:Sans"
     x="138.7697"
     y="223.05321"
     id="text3162"
     sodipodi:linespacing="125%"><tspan
       sodipodi:role="line"
       id="tspan3164"
       x="138.7697"
       y="223.05321"
       style="font-size:24px">P</tspan></text>
  <text
     xml:space="preserve"
     style="font-size:40px;font-style:normal;font-weight:normal;line-height:125%;letter-spacing:0px;word-spacing:0px;fill:#000000;fill-opacity:1;stroke:none;font-family:Sans"
     x="249.25513"
     y="475.84387"
     id="text3170"
     sodipodi:linespacing="125%"><tspan
       sodipodi:role="line"
       id="tspan3172"
       x="249.25513"
       y="475.84387"
       style="font-size:24px">s</tspan></text>
  <text
     xml:space="preserve"
     style="font-size:40px;font-style:normal;font-weight:normal;line-height:125%;letter-spacing:0px;word-spacing:0px;fill:#000000;fill-opacity:1;stroke:none;font-family:Sans"
     x="353.50446"
     y="223.84631"
     id="text3162-5"
     sodipodi:linespacing="125%"><tspan
       sodipodi:role="line"
       id="tspan3164-8"
       x="353.50446"
       y="223.84631"
       style="font-size:24px">P</tspan></text>
  <text
     xml:space="preserve"
     style="font-size:40px;font-style:normal;font-weight:normal;line-height:125%;letter-spacing:0px;word-spacing:0px;fill:#000000;fill-opacity:1;stroke:none;font-family:Sans"
     x="541.82056"
     y="285.71814"
     id="text3162-1"
     sodipodi:linespacing="125%"><tspan
       sodipodi:role="line"
       id="tspan3164-0"
       x="541.82056"
       y="285.71814"
       style="font-size:24px">P</tspan></text>
  <text
     xml:space="preserve"
     style="font-size:40px;font-style:normal;font-weight:normal;line-height:125%;letter-spacing:0px;word-spacing:0px;fill:#000000;fill-opacity:1;stroke:none;font-family:Sans"
     x="541.82056"
     y="161.09061"
     id="text3162-9"
     sodipodi:linespacing="125%"><tspan
       sodipodi:role="line"
       id="tspan3164-02"
       x="541.82056"
       y="161.09061"
       style="font-size:24px">P</tspan></text>
  <text
     xml:space="preserve"
     style="font-size:40px;font-style:normal;font-weight:normal;line-height:125%;letter-spacing:0px;word-spacing:0px;fill:#000000;fill-opacity:1;stroke:none;font-family:Sans"
     x="569.09174"
     y="471.78806"
     id="text3170-9"
     sodipodi:linespacing="125%"><tspan
       sodipodi:role="line"
       id="tspan3172-2"
       x="569.09174"
       y="471.78806"
       style="font-size:24px">s</tspan></text>
  <text
     xml:space="preserve"
     style="font-size:40px;font-style:normal;font-weight:normal;line-height:125%;letter-spacing:0px;word-spacing:0px;fill:#000000;fill-opacity:1;stroke:none;font-family:Sans"
     x="89.550217"
     y="248.23"
     id="text3081-0-2"
     sodipodi:linespacing="125%"
     transform="matrix(0.92031294,-0.39118294,0.39118294,0.92031294,0,0)"><tspan
       sodipodi:role="line"
       id="tspan3083-2-2"
       x="89.550217"
       y="248.23">+</tspan></text>
  <text
     xml:space="preserve"
     style="font-size:65.47322845px;font-style:normal;font-weight:normal;line-height:125%;letter-spacing:0px;word-spacing:0px;fill:#000000;fill-opacity:1;stroke:none;font-family:Sans"
     x="357.63425"
     y="330.37793"
     id="text3075"
     sodipodi:linespacing="125%"
     transform="scale(1.6368306,0.61093677)"><tspan
       sodipodi:role="line"
       id="tspan3077"
       x="357.63425"
       y="330.37793">-</tspan></text>
  <text
     xml:space="preserve"
     style="font-size:65.47322845px;font-style:normal;font-weight:normal;line-height:125%;letter-spacing:0px;word-spacing:0px;fill:#000000;fill-opacity:1;stroke:none;font-family:Sans"
     x="208.08736"
     y="98.65834"
     id="text3075-2"
     sodipodi:linespacing="125%"
     transform="matrix(1.5275751,0.58798707,-0.21946249,0.57015783,0,0)"><tspan
       sodipodi:role="line"
       id="tspan3077-5"
       x="208.08736"
       y="98.65834">-</tspan></text>
</svg>
